<?xml version="1.0" encoding="utf-8"?>
<svg width="102" height="102" viewBox="0 0 102 102" fill="none" xmlns="http://www.w3.org/2000/svg">
  <defs>
    <linearGradient id="gradient_1" gradientUnits="userSpaceOnUse" x1="9.031" y1="8.881" x2="30.015" y2="30.406">
      <stop offset="0" stop-color="#46BEE1" />
      <stop offset="0.62" stop-color="#3394BC" />
      <stop offset="1" stop-color="#2678A3" />
    </linearGradient>
    <linearGradient id="gradient_2" gradientUnits="userSpaceOnUse" x1="-0.484" y1="0.93" x2="21.695" y2="21.083">
      <stop offset="0" stop-color="#3091BA" />
      <stop offset="1" stop-color="#00448B" />
    </linearGradient>
  </defs>
  <g id="Oil">
    <g id="Layer_4">
      <path id="Shape" d="M51.0011 0C22.8773 0 0 22.88 0 51C0 79.12 22.8773 102 51.0011 102C79.125 102 102 79.1178 102 51C102 22.8822 79.1205 0 51.0011 0C51.0011 0 51.0011 0 51.0011 0ZM51.0011 100.593C23.6622 100.593 1.40924 78.3395 1.40924 50.9999C1.40924 23.6603 23.6622 1.41138 51.0011 1.41138C78.3401 1.41138 100.589 23.6514 100.589 50.9999C100.589 78.3484 78.3468 100.593 51.0011 100.593C51.0011 100.593 51.0011 100.593 51.0011 100.593Z" fill="#000000" />
      <path id="Path" d="M2.20968 7.48818C2.26097 7.52832 2.31448 7.57292 2.36354 7.60636C2.36354 7.60636 2.40144 7.57292 2.40367 7.56623C3.39814 6.32423 4.39484 5.07777 5.38708 3.84246C5.75053 3.3965 6.11621 2.93493 6.47743 2.48005C6.83492 2.03077 6.9203 1.42282 6.7004 0.892437C6.44056 0.334946 5.87484 -0.0153542 5.25998 0.000516891C4.76413 0.029911 4.30864 0.283508 4.02247 0.689524C4.02247 0.689524 2.70246 2.33957 2.70246 2.33957C1.81056 3.45448 0.896358 4.59167 0 5.71772C0.466017 6.09456 0.936495 6.46693 1.40251 6.846C1.67232 7.04891 1.93543 7.26743 2.20968 7.48818C2.20968 7.48818 2.20968 7.48818 2.20968 7.48818Z" fill="#000000" fill-rule="evenodd" transform="translate(19.72 23.49)" />
      <path id="Shape" d="M48.7045 0C21.8114 0 0 21.7985 0 48.6966C0 75.5947 21.8114 97.4021 48.7045 97.4021C75.5975 97.4021 97.4112 75.5902 97.4112 48.6966C97.4112 21.803 75.602 0 48.7045 0C48.7045 0 48.7045 0 48.7045 0ZM40.8379 3.03262L45.4044 2.52869L48.7045 12.1637L52.0045 2.52869L56.5688 3.03262L57.0705 16.7236L53.5207 16.2197L53.1796 7.07748L49.971 16.2197L47.4313 16.2197L44.2204 7.07748L43.8815 16.2197L40.334 16.7236L40.8379 3.03262ZM10.0919 25.5869C9.7262 25.2881 9.36275 24.9915 8.99261 24.6949C8.9453 24.662 8.90058 24.6255 8.85883 24.5857C8.85883 24.5857 9.05058 24.3516 9.05058 24.3516C9.996 23.1653 10.9392 21.9857 11.8913 20.8062C12.9928 19.4237 14.095 18.0449 15.198 16.6699C15.421 16.4112 15.6217 16.1459 15.8335 15.8783C16.2089 15.4144 16.7005 15.0581 17.2583 14.8459C18.143 14.5198 19.1248 14.5871 19.9567 15.031C20.7886 15.4748 21.3913 16.2529 21.613 17.1694C21.7493 17.7757 21.7224 18.4074 21.535 19C21.6175 18.9331 21.6955 18.8596 21.778 18.7949C22.8343 18.0153 24.2255 17.8565 25.4303 18.3778C26.6352 18.8992 27.4717 20.0221 27.6266 21.3257C27.6813 21.8143 27.6404 22.3088 27.5062 22.7818C27.2275 23.6938 26.5809 24.3872 25.9967 25.1075C24.8655 26.5256 23.7327 27.9378 22.5985 29.3441C21.6598 30.5281 20.7099 31.7032 19.769 32.885C19.6954 32.9742 19.6285 33.0611 19.546 33.1459C19.5326 33.1682 19.4524 33.0835 19.4368 33.0678C19.0845 32.7847 18.7344 32.5104 18.3843 32.2272C18.3843 32.2272 14.2548 28.9204 14.2548 28.9204C12.8746 27.8144 11.4855 26.6906 10.0919 25.5869C10.0919 25.5869 10.0919 25.5869 10.0919 25.5869ZM48.7044 79.1423C36.3913 79.1441 25.2895 71.7282 20.576 60.3527C15.8625 48.9772 18.4655 35.8823 27.1713 27.1745C35.8771 18.4666 48.971 15.8606 60.3474 20.5717C71.7237 25.2828 79.1419 36.3832 79.1428 48.6967C79.1428 65.5115 65.5144 79.1411 48.7022 79.1423C48.7022 79.1423 48.7044 79.1423 48.7044 79.1423ZM77.6912 32.961L75.9431 29.9686L81.9634 22.0617L72.9396 26.2024L70.4044 23.8589L78.6367 13.0399L81.1763 15.3857L76.4247 21.6291L84.0215 18.1417L86.2513 20.9111L81.183 27.5693L88.3182 24.2937L90.0641 27.2883L77.6912 32.961Z" fill="#000000" transform="translate(2.297 2.303)" />
      <path id="Path" d="M6.46405 1.89915C6.60539 1.34028 6.41956 0.749477 5.98375 0.37215C5.54795 -0.00518036 4.93664 -0.104551 4.40376 0.115313C3.97788 0.293697 3.72146 0.668303 3.44051 1.02284C2.37023 2.36072 1.30218 3.68745 0.240815 5.02311C0.15534 5.12072 0.0749617 5.22269 0 5.32859C0 5.32859 0.653316 5.85259 0.653316 5.85259C1.22413 6.31639 1.80164 6.76904 2.37023 7.22838C2.93658 6.526 3.4851 5.82138 4.05592 5.11676C4.62673 4.41214 5.18194 3.71644 5.74607 3.01629C6.02479 2.65505 6.33919 2.34288 6.46405 1.89915C6.46405 1.89915 6.46405 1.89915 6.46405 1.89915Z" fill="#000000" fill-rule="evenodd" transform="translate(15.359 20.386)" />
      <path id="Path" d="M29.9612 0L29.9612 29.9663C29.9612 29.9663 0 29.9663 0 29.9663C0.435061 13.6017 13.597 0.43755 29.9611 3.8147e-06C29.9611 3.8147e-06 29.9612 0 29.9612 0Z" fill="url(#gradient_1)" fill-rule="evenodd" transform="translate(21.038 21.034)" />
      <path id="Path" d="M29.9678 0C29.5293 16.366 16.3657 29.53 0 29.9685C0 29.9685 0 0 0 0C0 0 29.9678 0 29.9678 0Z" fill="url(#gradient_2)" fill-rule="evenodd" transform="translate(50.999 51)" />
    </g>
  </g>
</svg>