<?xml version="1.0" encoding="utf-8"?>
<svg width="32" height="34" viewBox="0 0 32 34" fill="none" xmlns="http://www.w3.org/2000/svg">
  <path id="Shape" d="M2.66663 26C1.93335 26 1.30554 25.7454 0.783325 25.2362C0.261108 24.7271 0 24.115 0 23.4C0 23.4 0 5.19995 0 5.19995C0 4.48499 0.261108 3.87292 0.783325 3.36377C1.30554 2.85455 1.93335 2.59998 2.66663 2.59998C2.66663 2.59998 4 2.59998 4 2.59998L4 0L6.66663 0L6.66663 2.59998L17.3334 2.59998L17.3334 0L20 0L20 2.59998C20 2.59998 21.3334 2.59998 21.3334 2.59998C22.0667 2.59998 22.6945 2.85455 23.2167 3.36377C23.7389 3.87292 24 4.48499 24 5.19995C24 5.19995 24 23.4 24 23.4C24 24.115 23.7389 24.7271 23.2167 25.2362C22.6945 25.7454 22.0667 26 21.3334 26C21.3334 26 2.66663 26 2.66663 26C2.66663 26 2.66663 26 2.66663 26ZM2.66663 23.4L21.3333 23.4L21.3333 10.4L2.66663 10.4L2.66663 23.4L2.66663 23.4ZM2.66663 7.79993L21.3333 7.79993L21.3333 5.19995L2.66663 5.19995L2.66663 7.79993L2.66663 7.79993ZM2.66663 7.79993L2.66663 5.19995L2.66663 7.79993L2.66663 7.79993Z" fill="#9E9E9E" transform="translate(6 2)" />
</svg>