<?xml version="1.0" encoding="utf-8"?>
<svg width="54" height="48" viewBox="0 0 54 48" fill="none" xmlns="http://www.w3.org/2000/svg">
  <path id="Shape" d="M9 42C9 42 9 45 9 45C9 45.85 8.71252 46.5625 8.13745 47.1375C7.5625 47.7125 6.84998 48 6 48C6 48 3 48 3 48C2.15002 48 1.4375 47.7125 0.862549 47.1375C0.287476 46.5625 0 45.85 0 45C0 45 0 21 0 21C0 21 6.30005 3 6.30005 3C6.59998 2.09998 7.13745 1.375 7.91248 0.824951C8.6875 0.275024 9.55005 0 10.5 0C10.5 0 43.5 0 43.5 0C44.45 0 45.3125 0.275024 46.0875 0.824951C46.8625 1.375 47.4 2.09998 47.7 3C47.7 3 54 21 54 21C54 21 54 45 54 45C54 45.85 53.7125 46.5625 53.1375 47.1375C52.5625 47.7125 51.85 48 51 48C51 48 48 48 48 48C47.15 48 46.4375 47.7125 45.8625 47.1375C45.2875 46.5625 45 45.85 45 45C45 45 45 42 45 42L9 42L9 42ZM8.40002 14.9999L45.6001 14.9999L42.4501 5.99988L11.55 5.99988L8.40002 14.9999L8.40002 14.9999ZM5.99988 20.9999L5.99988 35.9999L5.99988 20.9999L5.99988 20.9999ZM13.5 33.0001C14.75 33.0001 15.8125 32.5626 16.6875 31.6876C17.5625 30.8125 18 29.75 18 28.5C18 27.25 17.5625 26.1875 16.6875 25.3125C15.8125 24.4375 14.75 24 13.5 24C12.25 24 11.1875 24.4375 10.3125 25.3125C9.4375 26.1875 9 27.25 9 28.5C9 29.75 9.4375 30.8125 10.3125 31.6876C11.1875 32.5626 12.25 33.0001 13.5 33.0001C13.5 33.0001 13.5 33.0001 13.5 33.0001ZM40.5 33.0001C41.75 33.0001 42.8125 32.5626 43.6875 31.6876C44.5625 30.8125 45 29.75 45 28.5C45 27.25 44.5625 26.1875 43.6875 25.3125C42.8125 24.4375 41.75 24 40.5 24C39.25 24 38.1875 24.4375 37.3125 25.3125C36.4375 26.1875 36 27.25 36 28.5C36 29.75 36.4375 30.8125 37.3125 31.6876C38.1875 32.5626 39.25 33.0001 40.5 33.0001C40.5 33.0001 40.5 33.0001 40.5 33.0001ZM5.99988 35.9999L47.9998 35.9999L47.9998 20.9999L5.99988 20.9999L5.99988 35.9999L5.99988 35.9999Z" fill="#C4C4C4" transform="scale(1 1)" />
</svg>