<?xml version="1.0" encoding="utf-8"?>
<svg width="174" height="174" viewBox="0 0 174 174" fill="none" xmlns="http://www.w3.org/2000/svg">
  <g id="Layer">
    <g id="Group">
      <path id="Shape" d="M15.2191 15.2518C15.2191 15.2518 15.22 15.251 15.22 15.251C18.697 11.7682 18.697 6.10037 15.22 2.61691C13.5361 0.930435 11.2956 0 8.91321 0C6.53209 0 4.29182 0.930435 2.60693 2.61867C-0.869125 6.10046 -0.869125 11.7684 2.6078 15.2511C6.08551 18.7336 11.7427 18.7336 15.2191 15.2518C15.2191 15.2518 15.2191 15.2518 15.2191 15.2518ZM5.38121 12.4726C4.43806 11.5279 3.91853 10.2712 3.91853 8.93393C3.91853 7.59743 4.43797 6.3399 5.38121 5.3951C6.32524 4.45038 7.58006 3.92944 8.91461 3.92944C10.2488 3.92944 11.5027 4.45029 12.4466 5.3951C14.3941 7.34665 14.3941 10.521 12.4458 12.4726C10.498 14.4242 7.32944 14.4234 5.38121 12.4726C5.38121 12.4726 5.38121 12.4726 5.38121 12.4726Z" fill="#FFFFFF" transform="translate(134.45 134.385)" />
      <path id="Shape" d="M165.231 37.4641C165.233 37.4615 165.236 37.4599 165.238 37.4577C165.242 37.4535 165.246 37.4488 165.25 37.4446C165.25 37.4446 165.788 36.9059 165.788 36.9059C165.788 36.9059 165.774 36.8923 165.774 36.8923C173.768 28.3 173.592 14.7971 165.237 6.42708C161.1 2.28258 155.6 0 149.749 0C144.159 0 138.892 2.08796 134.825 5.88843C134.825 5.88843 134.812 5.87532 134.812 5.87532C134.812 5.87532 134.273 6.41417 134.273 6.41417C134.269 6.41867 134.265 6.42248 134.26 6.42698C134.258 6.42904 134.257 6.43139 134.254 6.43373C134.254 6.43373 5.57533 135.339 5.57533 135.339C5.57533 135.339 5.62543 135.389 5.62543 135.389C4.90615 135.854 4.38506 136.617 4.25994 137.533C4.25994 137.533 0.0280685 168.498 0.0280685 168.498C-0.100765 169.441 0.218535 170.391 0.890637 171.064C1.46448 171.639 2.23924 171.956 3.03988 171.956C3.17682 171.956 3.31464 171.946 3.45246 171.928C3.45246 171.928 34.3618 167.687 34.3618 167.687C35.2765 167.562 36.0382 167.04 36.5021 166.319C36.5021 166.319 36.5521 166.369 36.5521 166.369L165.231 37.4641C165.231 37.4641 165.231 37.4641 165.231 37.4641ZM149.749 6.09033C153.975 6.09033 157.949 7.73925 160.938 10.7334C166.372 16.1774 167.02 24.6296 162.881 30.7903C162.881 30.7903 140.914 8.78563 140.914 8.78563C143.503 7.0326 146.554 6.09033 149.749 6.09033C149.749 6.09033 149.749 6.09033 149.749 6.09033ZM134.812 14.4878L157.19 36.9057L36.5521 157.756L28.133 149.323L124.97 52.3165L119.173 46.5101L22.3371 143.517L14.173 135.339L134.812 14.4878L134.812 14.4878ZM6.59433 165.349L10.0794 139.85L32.0479 161.857L6.59433 165.349L6.59433 165.349Z" fill="#FFFFFF" transform="translate(0 0.88)" />
      <path id="Path" d="M48.3105 77.6535L53.8573 72.0969L9.46932 27.6303L27.5814 9.48583L36.1694 18.0897L29.9385 24.3307L34.8576 29.2582L41.0885 23.0176L46.0955 28.033L39.8646 34.2745L44.7838 39.2015L51.0152 32.9609L56.0217 37.9772L46.8036 47.2094L51.7241 52.1373L60.9409 42.9042L67.0458 49.0195L60.8149 55.2622L65.7341 60.1892L71.965 53.9473L71.9692 53.9519L77.5161 48.3953C77.5161 48.3953 30.3544 1.15112 30.3544 1.15112C28.8226 -0.383707 26.3397 -0.383707 24.808 1.15112C24.808 1.15112 1.14917 24.8519 1.14917 24.8519C-0.383057 26.3865 -0.383057 28.8741 1.14917 30.4086C1.14917 30.4086 48.3105 77.6535 48.3105 77.6535L48.3105 77.6535Z" fill="#FFFFFF" fill-rule="evenodd" transform="translate(0.298 0)" />
      <path id="Path" d="M78.7785 49.6435C78.7076 49.5721 78.6342 49.5041 78.5596 49.4395C78.5596 49.4395 29.2062 0 29.2062 0L14.4417 14.7905L19.3508 19.7083L28.5685 10.4744L70.4506 52.4295L52.3376 70.5734L5.54687 23.7007L0 29.2582C0 29.2582 49.5639 78.9084 49.5639 78.9084C51.0957 80.4436 53.5786 80.4436 55.1107 78.9084C55.1107 78.9084 78.7709 55.2086 78.7709 55.2086C78.7729 55.2053 78.7756 55.2035 78.7786 55.2002C80.3106 53.6665 80.3106 51.1779 78.7785 49.6435C78.7785 49.6435 78.7785 49.6435 78.7785 49.6435Z" fill="#FFFFFF" fill-rule="evenodd" transform="translate(94.072 93.94)" />
    </g>
  </g>
</svg>