<?xml version="1.0" encoding="utf-8"?>
<svg width="30" height="30" viewBox="0 0 30 30" fill="none" xmlns="http://www.w3.org/2000/svg">
  <path id="Shape" d="M13.3333 16.667C13.8055 16.667 14.2013 16.5073 14.5208 16.1875C14.8402 15.8682 15 15.4722 15 15C15 14.5278 14.8402 14.1323 14.5208 13.8125C14.2013 13.4932 13.8055 13.3335 13.3333 13.3335C12.8611 13.3335 12.4652 13.4932 12.1458 13.8125C11.8263 14.1323 11.6666 14.5278 11.6666 15C11.6666 15.4722 11.8263 15.8682 12.1458 16.1875C12.4652 16.5073 12.8611 16.667 13.3333 16.667C13.3333 16.667 13.3333 16.667 13.3333 16.667ZM6.66663 30L6.66663 26.6665L16.6666 25C16.6666 25 16.6666 6.4585 16.6666 6.4585C16.6666 6.0415 16.5416 5.6665 16.2916 5.3335C16.0416 5 15.7222 4.80566 15.3333 4.75C15.3333 4.75 6.66663 3.3335 6.66663 3.3335L6.66663 0C6.66663 0 15.8333 1.5 15.8333 1.5C17.0555 1.72217 18.0555 2.2915 18.8333 3.2085C19.6111 4.125 20 5.19434 20 6.4165C20 6.4165 20 27.75 20 27.75L6.66663 30L6.66663 30ZM0 30L0 26.6665L3.33337 26.6665C3.33337 26.6665 3.33337 3.3335 3.33337 3.3335C3.33337 2.38867 3.65967 1.59717 4.3125 0.958496C4.96533 0.319336 5.75 0 6.66663 0C6.66663 0 23.3334 0 23.3334 0C24.2778 0 25.0695 0.319336 25.7084 0.958496C26.3472 1.59717 26.6666 2.38867 26.6666 3.3335C26.6666 3.3335 26.6666 26.6665 26.6666 26.6665L30 26.6665L30 30L0 30L0 30ZM6.66663 26.667L23.3333 26.667L23.3333 3.3335L6.66663 3.3335L6.66663 26.667L6.66663 26.667Z" fill="#FFFFFF" />
</svg>