<?xml version="1.0" encoding="utf-8"?>
<svg width="252.178" height="96.045" viewBox="0 0 252.178 96.045" fill="none" xmlns="http://www.w3.org/2000/svg">
  <defs>
    <linearGradient id="gradient_1" gradientUnits="userSpaceOnUse" x1="0.014" y1="47.505" x2="251.147" y2="47.505">
      <stop offset="0" stop-color="#FFFFFF" />
      <stop offset="0.22" stop-color="#000000" />
      <stop offset="0.38" stop-color="#C1C0C0" />
      <stop offset="0.72" stop-color="#212121" />
      <stop offset="0.98" stop-color="#D9DEE2" />
    </linearGradient>
    <linearGradient id="gradient_2" gradientUnits="userSpaceOnUse" x1="-0.235" y1="47.505" x2="251.397" y2="47.505">
      <stop offset="0" stop-color="#FFFFFF" />
      <stop offset="0.22" stop-color="#000000" />
      <stop offset="0.38" stop-color="#C1C0C0" />
      <stop offset="0.72" stop-color="#212121" />
      <stop offset="0.98" stop-color="#D9DEE2" />
    </linearGradient>
  </defs>
  <g id="Layer_52" transform="translate(0.522 0.522)">
    <path id="Shape" d="M125.624 0C56.2144 0 0 21.3059 0 47.5384C0 73.771 56.1808 95 125.61 95C194.952 95.0048 251.133 73.7806 251.133 47.5384C251.133 21.2963 194.952 0 125.624 0C125.624 0 125.624 0 125.624 0ZM124.501 91.605C59.8446 91.605 7.4812 71.8358 7.4812 47.3895C7.4812 22.9432 59.8446 3.10193 124.501 3.10193C189.156 3.10193 241.448 22.9528 241.448 47.3943C241.448 71.8358 189.084 91.6098 124.501 91.6098C124.501 91.6098 124.501 91.605 124.501 91.605Z" fill="url(#gradient_1)" fill-rule="evenodd" stroke-width="1.045" stroke="url(#gradient_2)" />
    <path id="Path" d="M117.019 88.5079C181.603 88.5079 233.967 68.7386 233.967 44.2924C233.967 19.8461 181.603 0 117.019 0C52.3586 0 0 19.8461 0 44.2924C0 68.7386 52.3394 88.5079 117.019 88.5079C117.019 88.5079 117.019 88.5079 117.019 88.5079Z" fill="#2F5E9C" fill-rule="evenodd" transform="translate(7.481 3.251)" />
    <path id="Path" d="M112.419 79.5428C50.3995 79.5428 0 61.8864 0 39.8554C0 17.8965 50.4187 0 112.419 0C174.593 0 224.915 17.8821 224.915 39.8554C224.915 61.8288 174.593 79.5428 112.419 79.5428C112.419 79.5428 112.419 79.5428 112.419 79.5428Z" fill="#FFFFFF" fill-rule="evenodd" transform="translate(12.081 7.688)" />
    <path id="Path" d="M108.871 73.0891C169.003 73.0891 217.823 56.7148 217.823 36.4941C217.823 16.3263 169.003 0 108.871 0C48.738 0 0 16.3455 0 36.4893C0 56.7099 48.666 73.0843 108.871 73.0843C108.871 73.0843 108.871 73.0891 108.871 73.0891Z" fill="#2F5E9C" fill-rule="evenodd" transform="translate(15.63 11.049)" />
    <path id="Shape" d="M92.5878 23.3899C92.2853 23.3899 91.7571 24.0669 91.4546 24.4463C90.0141 25.9588 84.0647 32.1292 80.8187 32.2973C81.4957 32.2973 79.6855 32.667 79.5366 31.2361C79.5341 31.1929 79.5341 31.1496 79.5366 31.1064C79.5366 30.2277 80.2329 29.1857 80.521 28.5951C80.521 28.5951 96.6693 0 96.6693 0L90.7007 0C90.7007 0 80.9675 16.4512 80.9675 16.4512C80.2137 14.9386 79.0852 11.3948 74.6292 11.318C67.2345 11.2412 64.3678 16.2975 59.2395 21.1282C57.7317 22.4871 55.9167 24.2974 51.7679 24.2974C49.3671 24.2974 47.4703 22.3383 47.9265 19.8461C48.229 17.8869 48.8869 16.9025 50.3274 16.3743C51.0093 18.3383 52.2865 19.3899 54.4761 19.3899C56.9683 19.3179 58.3992 17.0514 58.476 15.0922C58.476 13.4308 57.4196 11.318 54.3993 11.1691C51.6095 11.0154 49.4967 12.2976 46.4812 15.7693C46.4812 15.7693 47.2303 10.6409 41.5738 10.7898C40.9548 10.7428 40.3336 10.8466 39.7635 11.0923C36.6712 12.0527 32.6713 17.0514 29.5021 20.8977C29.6259 20.1505 29.6758 19.393 29.651 18.636C29.651 16.4512 28.8251 13.5797 27.3125 12.0719C27.0735 11.8386 26.7411 11.7272 26.4098 11.7693C25.4254 11.7693 24.5947 12.6001 24.5947 13.887C25.6719 15.1248 26.2863 16.698 26.3329 18.3383C26.3329 20.1486 25.8047 23.4667 25.0509 24.7488C22.1698 29.6563 18.5637 32.8255 14.1844 32.1436C11.846 31.6154 10.2614 29.3489 10.7128 25.9588C10.9432 23.9949 12.1533 21.277 13.2817 19.6204C15.5251 16.456 18.9522 14.3329 22.7844 13.7333C22.7844 13.7333 23.0149 12.8305 22.4099 12.3744C22.1842 11.9998 21.8817 11.5485 20.8253 11.5485C14.4149 11.7693 10.4871 16.3743 8.22545 20.8977C7.39474 22.4871 6.18469 24.7392 5.50764 26.1797C5.50764 26.1797 4.90742 27.8412 2.11278 29.9492C0.672249 31.0824 0.225685 31.4618 0 31.3897C0.16172 32.1256 0.5597 32.7883 1.13322 33.2769C1.3589 33.4257 2.09357 32.9743 2.41529 32.8255C5.96381 30.7847 6.33835 29.8051 6.33835 29.8051C7.09222 34.026 10.7128 36.2156 14.7126 36.2156C20.2251 36.2156 25.2766 31.2361 28.22 26.8616C30.4489 23.6574 32.8939 20.6091 35.538 17.738C37.1994 16.1582 38.9328 15.1018 39.9892 15.1018C40.4383 15.1057 40.8615 15.312 41.1412 15.6634C41.4208 16.0148 41.5268 16.4736 41.4297 16.9121C41.245 17.7207 41.0027 18.515 40.7047 19.289C40.3583 20.1858 39.9458 21.0558 39.4706 21.8916C39.4706 21.8916 31.2452 35.8458 31.2452 35.8458C31.2452 35.8458 37.6604 35.8458 37.6604 35.8458C41.3577 28.9071 41.5018 28.6862 45.1319 22.0452C46.0923 25.7379 48.0706 27.1736 51.2398 27.2457C53.9576 27.3273 55.8399 27.1736 57.8806 26.1172C57.3974 28.0004 57.5562 29.9911 58.332 31.7738C59.0859 33.5073 60.5984 35.6969 64.2958 35.7738C68.7471 35.7738 73.1167 33.8146 74.4036 32.6766C74.7781 34.8662 75.8441 36.0042 78.6291 36.0042C84.2856 35.8458 89.2651 30.0403 92.2854 26.2661C92.8136 25.589 93.4954 24.4558 93.4954 24.1581C93.4858 23.678 92.8855 23.3899 92.5878 23.3899C92.5878 23.3899 92.5878 23.3899 92.5878 23.3899ZM77.7263 21.5796C77.7263 21.5796 75.1573 25.8773 72.5163 28.5183C67.8394 33.2769 64.8335 31.6875 64.1469 31.1641C63.4602 30.6407 62.9368 28.7632 63.2393 26.8424C63.465 24.9553 64.8959 21.7861 66.2548 20.1198C68.9678 16.7969 72.2906 14.5305 74.9364 14.8378C76.9436 15.0683 77.8175 16.3792 77.8175 18.0406C77.7788 19.1943 77.4608 20.3214 76.8907 21.3251C76.8907 21.3251 77.7263 21.5796 77.7263 21.5796Z" fill="#FFFFFF" fill-rule="evenodd" transform="translate(93.783 33.752)" />
    <path id="Path" d="M85.2618 4.13921C85.2618 6.54014 76.8107 11.1547 69.6416 11.1547C58.4775 11.1547 46.8572 5.79585 41.4984 4.59058C35.6883 3.23166 30.4111 2.09842 26.2576 2.09842C11.6986 2.09842 5.20659 8.34084 5.5091 14.1031C5.66277 16.4416 7.54506 17.9446 10.3397 17.4212C13.3552 16.8929 17.5808 14.0262 18.6372 11.5341C18.7162 11.3331 18.8724 11.1723 19.071 11.0874C19.2695 11.0026 19.4937 11.0009 19.6936 11.0827C19.9576 11.3039 20.0746 11.6549 19.9961 11.9902C19.6167 14.929 15.1031 23.0921 7.24735 23.0921C2.86813 23.0921 -0.0753555 19.0154 0.00147247 15.0154C0.0783005 7.54852 7.68432 0 26.4833 0C30.4803 0.0127411 34.469 0.366156 38.406 1.05639C43.4622 1.96394 56.0621 4.07676 66.3235 4.22562C70.0929 4.22562 74.9235 4.37929 78.8465 3.77425C82.9953 3.09238 82.0925 2.94353 83.7491 2.94353C85.2617 2.94353 85.2617 3.54856 85.2617 4.1536C85.2617 4.1536 85.2618 4.13921 85.2618 4.13921Z" fill="#FFFFFF" fill-rule="evenodd" transform="translate(72.289 18.204)" />
    <path id="Shape" d="M59.2408 11.3085C59.2122 10.0153 58.2543 8.93151 56.9743 8.74436C54.5734 8.36501 52.6527 10.3242 52.4511 13.5702C52.475 14.1836 52.575 14.7917 52.7488 15.3805C49.5016 15.9242 46.229 16.3024 42.9435 16.5138C48.5231 7.0829 53.6562 3.76001 55.164 2.40588C55.5832 2.04346 55.963 1.63787 56.2972 1.1958C56.4456 0.867601 56.3684 0.481306 56.1051 0.235432C55.9772 0.103735 55.8074 0.0205574 55.6249 0.000144958C55.5231 -0.00143051 55.4214 0.00986671 55.3224 0.033762C52.9984 0.542757 44.7585 6.90042 38.2761 16.8403C36.5379 17.066 29.2968 17.671 26.8815 20.384C26.6658 20.6782 26.5123 21.0131 26.4301 21.3684C26.579 21.9687 27.0304 22.2712 27.7122 21.743C29.22 20.0095 35.3326 19.342 36.7636 19.2556C27.8611 31.7789 19.6356 40.0044 12.3177 40.0044C11.5349 40.0634 10.7476 40.0117 9.97924 39.8508C7.03575 39.1737 5.30231 36.0813 5.30231 33.2866C5.30231 29.5892 8.84602 25.6037 10.8868 24.8354C11.5638 24.5376 11.8471 24.1583 11.8471 23.875C11.8471 23.4236 11.5446 23.1211 10.7139 23.1211C3.69852 24.8546 -0.0756798 30.5928 0.00115204 35.2698C0.154812 42.9528 5.96016 47.2744 12.5242 47.2744C21.7292 47.2744 26.4109 43.2745 41.4213 18.9819C47.3851 18.3768 50.3286 18.0215 53.3441 17.4741C53.3441 17.4741 54.2516 19.6589 56.5133 19.6589C56.8926 19.7358 56.8158 19.3564 57.0415 18.5305C56.0811 18.4537 54.9287 17.7718 54.9287 16.9459C55.7568 16.5211 56.5402 16.0144 57.2672 15.4333C58.2612 14.497 59.2408 12.6098 59.2408 11.3085C59.2408 11.3085 59.2408 11.3085 59.2408 11.3085ZM54.559 15.2316C54.2572 14.2736 54.2572 13.246 54.559 12.2881C54.7781 11.2647 55.6349 10.5012 56.6766 10.4009C57.2 10.3241 57.4305 10.8523 57.5025 11.3085C57.6561 12.2112 56.9023 13.5702 56.4461 14.0215C55.3177 15.3276 54.559 15.2508 54.559 15.2508C54.559 15.2508 54.559 15.2316 54.559 15.2316Z" fill="#FFFFFF" fill-rule="evenodd" transform="translate(58.624 22.785)" />
  </g>
</svg>