<?xml version="1.0" encoding="utf-8"?>
<svg width="54.871" height="49.883" viewBox="0 0 54.871 49.883" fill="none" xmlns="http://www.w3.org/2000/svg">
  <path id="Shape" d="M27.1364 44.8945C27.3025 44.8945 27.4688 44.8528 27.635 44.7698C27.8011 44.6865 27.9258 44.6035 28.0089 44.5203C28.0089 44.5203 48.4515 24.0684 48.4515 24.0684C48.9501 23.5696 49.3137 23.0083 49.5422 22.3848C49.7708 21.7612 49.885 21.1377 49.885 20.5142C49.885 19.8491 49.7708 19.2153 49.5422 18.6125C49.3137 18.0098 48.9501 17.4797 48.4515 17.0225C48.4515 17.0225 37.8562 6.42236 37.8562 6.42236C37.3992 5.92358 36.8694 5.55981 36.267 5.3313C35.6646 5.10254 35.0309 4.98828 34.3661 4.98828C33.7428 4.98828 33.1195 5.10254 32.4963 5.3313C31.873 5.55981 31.3121 5.92358 30.8135 6.42236C30.8135 6.42236 30.1279 7.1084 30.1279 7.1084C30.1279 7.1084 34.74 11.7849 34.74 11.7849C35.3633 12.3667 35.8203 13.032 36.1112 13.78C36.402 14.5283 36.5475 15.3181 36.5475 16.1497C36.5475 17.8955 35.9553 19.3608 34.7711 20.5454C33.587 21.7302 32.1223 22.3225 30.3772 22.3225C29.5463 22.3225 28.7465 22.177 27.9778 21.886C27.2091 21.595 26.5338 21.1587 25.9521 20.5767C25.9521 20.5767 21.2778 15.9624 21.2778 15.9624C21.2778 15.9624 10.3708 26.8743 10.3708 26.8743C10.2462 26.999 10.1527 27.134 10.0905 27.2795C10.0281 27.425 9.99695 27.5811 9.99695 27.7473C9.99695 28.0798 10.1216 28.3811 10.3708 28.6514C10.6202 28.9216 10.911 29.0566 11.2434 29.0566C11.4097 29.0566 11.5758 29.0151 11.7421 28.9319C11.9082 28.8489 12.033 28.7656 12.116 28.6826C12.116 28.6826 20.5922 20.2026 20.5922 20.2026L24.0824 23.6943C24.0824 23.6943 15.6686 32.1743 15.6686 32.1743C15.5438 32.2991 15.4504 32.4341 15.3881 32.5796C15.3257 32.7251 15.2946 32.8811 15.2946 33.0474C15.2946 33.3799 15.4192 33.6709 15.6686 33.9202C15.9178 34.1697 16.2087 34.2944 16.5411 34.2944C16.7073 34.2944 16.8735 34.2529 17.0397 34.1697C17.2059 34.0864 17.3306 34.0034 17.4136 33.9202C17.4136 33.9202 25.8899 25.5024 25.8899 25.5024L29.38 28.9944C29.38 28.9944 20.9662 37.4744 20.9662 37.4744C20.8416 37.5576 20.748 37.6824 20.6857 37.8486C20.6234 38.0149 20.5922 38.1812 20.5922 38.3474C20.5922 38.6799 20.7169 38.9709 20.9662 39.2202C21.2155 39.4697 21.5063 39.5945 21.8387 39.5945C22.0049 39.5945 22.1608 39.5632 22.3062 39.501C22.4515 39.4385 22.5867 39.345 22.7113 39.2202C22.7113 39.2202 31.1875 30.8025 31.1875 30.8025L34.6777 34.2944C34.6777 34.2944 26.2014 42.7744 26.2014 42.7744C26.0768 42.8992 25.9833 43.0342 25.921 43.1797C25.8586 43.3252 25.8275 43.4812 25.8275 43.6475C25.8275 43.98 25.9625 44.271 26.2327 44.5203C26.5027 44.7698 26.804 44.8945 27.1364 44.8945C27.1364 44.8945 27.1364 44.8945 27.1364 44.8945ZM27.074 49.8828C25.5366 49.8828 24.1759 49.3735 22.9917 48.355C21.8075 47.3367 21.1116 46.0583 20.9038 44.5203C19.4911 44.3125 18.307 43.7305 17.3513 42.7744C16.3956 41.8184 15.814 40.6335 15.6062 39.2202C14.1935 39.0125 13.0197 38.4202 12.0848 37.4431C11.1499 36.4663 10.5786 35.292 10.3708 33.9202C8.79199 33.7124 7.50391 33.0266 6.50671 31.8625C5.50952 30.6987 5.01099 29.3269 5.01099 27.7473C5.01099 26.9158 5.16675 26.1157 5.47839 25.3467C5.79004 24.5776 6.23669 23.9021 6.81836 23.3201C6.81836 23.3201 21.2778 8.9165 21.2778 8.9165C21.2778 8.9165 29.4424 17.0847 29.4424 17.0847C29.5255 17.2095 29.6501 17.303 29.8163 17.3655C29.9825 17.4277 30.1487 17.459 30.3149 17.459C30.6888 17.459 31.0005 17.3447 31.2498 17.116C31.4991 16.8875 31.6238 16.5859 31.6238 16.2119C31.6238 16.0457 31.5925 15.8794 31.5303 15.7131C31.4679 15.5469 31.3744 15.4221 31.2498 15.3389C31.2498 15.3389 22.3373 6.42236 22.3373 6.42236C21.8802 5.92358 21.3505 5.55981 20.748 5.3313C20.1455 5.10254 19.512 4.98828 18.847 4.98828C18.2239 4.98828 17.6006 5.10254 16.9773 5.3313C16.3541 5.55981 15.7932 5.92358 15.2946 6.42236C15.2946 6.42236 6.50671 15.2766 6.50671 15.2766C6.13281 15.6506 5.82117 16.0872 5.5719 16.5859C5.32251 17.0847 5.15637 17.5837 5.07324 18.0825C4.99011 18.5813 4.99011 19.0906 5.07324 19.6101C5.15637 20.1296 5.32251 20.6182 5.5719 21.0754C5.5719 21.0754 1.95703 24.6919 1.95703 24.6919C1.25061 23.7358 0.731323 22.6863 0.398926 21.5432C0.0665283 20.3999 -0.0582275 19.2463 0.0249023 18.0825C0.108032 16.9185 0.398926 15.7859 0.897461 14.6843C1.39612 13.5828 2.08167 12.5955 2.95422 11.7224C2.95422 11.7224 11.7421 2.93066 11.7421 2.93066C12.7393 1.97461 13.8507 1.24707 15.0764 0.748291C16.3021 0.249512 17.5591 0 18.847 0C20.1351 0 21.3921 0.249512 22.6178 0.748291C23.8435 1.24707 24.9342 1.97461 25.8899 2.93066C25.8899 2.93066 26.5754 3.61646 26.5754 3.61646C26.5754 3.61646 27.261 2.93066 27.261 2.93066C28.2582 1.97461 29.3696 1.24707 30.5953 0.748291C31.821 0.249512 33.078 0 34.3661 0C35.6541 0 36.911 0.249512 38.1367 0.748291C39.3624 1.24707 40.4531 1.97461 41.4088 2.93066C41.4088 2.93066 51.9418 13.4683 51.9418 13.4683C52.8973 14.4243 53.6245 15.5259 54.123 16.7729C54.6217 18.02 54.871 19.2881 54.871 20.5767C54.871 21.8652 54.6217 23.1228 54.123 24.3491C53.6245 25.5752 52.8973 26.6665 51.9418 27.6226C51.9418 27.6226 31.4991 48.0122 31.4991 48.0122C30.9174 48.594 30.2422 49.0513 29.4735 49.3838C28.7048 49.7166 27.905 49.8828 27.074 49.8828C27.074 49.8828 27.074 49.8828 27.074 49.8828Z" fill="#E8EAED" />
</svg>