<?xml version="1.0" encoding="utf-8"?>
<svg width="202.534" height="102" viewBox="0 0 202.534 102" fill="none" xmlns="http://www.w3.org/2000/svg">
  <defs>
    <linearGradient id="gradient_1" gradientUnits="userSpaceOnUse" x1="-50.73" y1="2.58" x2="-43.856" y2="2.58">
      <stop offset="0.52" stop-color="#027F48" />
      <stop offset="1" stop-color="#0C6535" />
    </linearGradient>
    <linearGradient id="gradient_2" gradientUnits="userSpaceOnUse" x1="-3.216" y1="7.014" x2="6.347" y2="7.014">
      <stop offset="0.52" stop-color="#027F48" />
      <stop offset="1" stop-color="#0C6535" />
    </linearGradient>
    <linearGradient id="gradient_3" gradientUnits="userSpaceOnUse" x1="-25.976" y1="2.58" x2="16.13" y2="2.58">
      <stop offset="0.52" stop-color="#027F48" />
      <stop offset="1" stop-color="#0C6535" />
    </linearGradient>
    <linearGradient id="gradient_4" gradientUnits="userSpaceOnUse" x1="0" y1="4.61" x2="5.449" y2="4.61">
      <stop offset="0.52" stop-color="#027F48" />
      <stop offset="1" stop-color="#0C6535" />
    </linearGradient>
    <linearGradient id="gradient_5" gradientUnits="userSpaceOnUse" x1="26.795" y1="8.916" x2="163.747" y2="81.137">
      <stop offset="0.25" stop-color="#0C6535" />
      <stop offset="0.52" stop-color="#027F48" />
      <stop offset="0.75" stop-color="#0C6535" />
    </linearGradient>
    <linearGradient id="gradient_6" gradientUnits="userSpaceOnUse" x1="-19.968" y1="7.234" x2="34.585" y2="7.234">
      <stop offset="0.52" stop-color="#027F48" />
      <stop offset="1" stop-color="#0C6535" />
    </linearGradient>
    <linearGradient id="gradient_7" gradientUnits="userSpaceOnUse" x1="0.004" y1="50.998" x2="202.538" y2="50.998">
      <stop offset="0.25" stop-color="#0C6535" />
      <stop offset="0.52" stop-color="#027F48" />
      <stop offset="0.75" stop-color="#0C6535" />
    </linearGradient>
  </defs>
  <g id="Layer_53">
    <path id="Path" d="M4.49382 0L1.6777 0L0 5.16492C0 5.16492 2.69229 5.16492 2.69229 5.16492C3.30521 5.11409 3.91144 5.00167 4.50182 4.82936C5.00113 4.6932 5.45052 4.41578 5.79602 4.03046C6.19019 3.60549 6.4897 3.10174 6.67482 2.55248C6.94246 1.72961 6.94246 1.10247 6.67482 0.655083C6.40718 0.207699 5.65623 0 4.49382 0C4.49382 0 4.49382 0 4.49382 0Z" fill="url(#gradient_1)" fill-rule="evenodd" transform="translate(157.755 60.105)" />
    <path id="Path" d="M1.49795 14.0168C2.82013 14.0168 3.81078 13.845 4.48185 13.4575C5.28055 12.9809 5.95425 12.3209 6.44715 11.5322C7.08228 10.6174 7.76135 9.13546 8.49634 7.08228C9.43904 4.35003 9.75063 2.50057 9.40309 1.48995C9.05556 0.479342 8.07292 0 6.44715 0C6.44715 0 4.90128 0 4.90128 0L0 14.0168C0 14.0168 1.49795 14.0168 1.49795 14.0168Z" fill="url(#gradient_2)" fill-rule="evenodd" transform="translate(120.842 29.392)" />
    <path id="Path" d="M4.46986 0L1.6737 0L0 5.16492C0 5.16492 2.68032 5.16492 2.68032 5.16492C3.29433 5.11256 3.90174 5.00018 4.49384 4.82938C4.99306 4.68777 5.44361 4.41135 5.79604 4.03047C6.18744 3.60343 6.4866 3.1003 6.67484 2.55249C6.93048 1.72962 6.93048 1.10248 6.67484 0.655094C6.41918 0.20771 5.62828 0 4.46986 0C4.46986 0 4.46986 0 4.46986 0Z" fill="url(#gradient_3)" fill-rule="evenodd" transform="translate(61.971 60.105)" />
    <path id="Path" d="M5.44852 0L0 9.22334L4.45389 9.22334L5.44852 0L5.44852 0Z" fill="url(#gradient_4)" fill-rule="evenodd" transform="translate(73.415 30.223)" />
    <path id="Shape" d="M95.9004 0C43.1008 0 0 20.372 0 45.3617C0 70.3514 43.1008 90.7275 95.9004 90.7275C148.7 90.7275 191.813 70.3554 191.813 45.3617C191.813 20.368 148.724 0 95.9004 0C95.9004 0 95.9004 0 95.9004 0ZM139.345 32.9707L141.138 27.662L158.582 27.3744L155.095 32.755L137.875 40.9278L147.062 32.6711L139.345 32.9707ZM125.46 17.9354C127.305 17.9354 128.655 18.259 129.574 18.8901C130.489 19.5266 131.136 20.4804 131.388 21.5664C131.715 22.9202 131.77 24.3254 131.551 25.7008C131.305 27.3967 130.886 29.0631 130.301 30.6739C129.326 33.4141 128.336 35.5512 127.329 37.0651C126.392 38.4833 125.257 39.7599 123.958 40.8559C122.927 41.7695 121.723 42.4675 120.419 42.9091C119.145 43.3265 117.819 43.5619 116.48 43.6082C116.48 43.6082 107.189 43.6082 107.189 43.6082L116.196 17.9554C116.196 17.9554 125.46 17.9354 125.46 17.9354ZM72.5204 17.9354L79.3111 17.9354L77.8891 43.5882L71.358 43.5882L71.8574 39.354L64.7431 39.354L62.2865 43.5882L55.8953 43.5882L72.5204 17.9354ZM46.3045 17.9354L52.5279 17.9354L45.7372 37.2609L55.4639 37.2609L53.2549 43.5882L37.2769 43.5882L46.3045 17.9354ZM42.31 63.6327L24.85 63.9123L28.3372 58.5157L45.5695 50.3629L36.3821 58.6196L44.0916 58.32L42.31 63.6327ZM69.8721 56.3827C69.4618 57.71 68.8105 58.9504 67.9507 60.0416C67.1677 61.0346 66.2091 61.8754 65.1226 62.5222C64.3253 62.9882 63.46 63.3265 62.5581 63.5249C63.0643 63.7488 63.5247 64.0644 63.9162 64.4556C64.1679 64.8811 64.3665 65.3359 64.5074 65.8097C64.6851 66.3284 64.8096 66.8637 64.8789 67.4075C64.8789 67.4075 65.562 74.7814 65.562 74.7814L58.3519 74.7814C58.3519 74.7814 57.4571 67.0001 57.4571 67.0001C57.3453 65.9975 57.1775 65.3543 56.9298 65.0388C56.5936 64.639 56.0893 64.4202 55.5677 64.4476C55.5677 64.4476 54.9925 64.4476 54.9925 64.4476L51.6411 74.7814L45.2339 74.7814L53.5145 49.3523C53.5145 49.3523 64.1679 49.3523 64.1679 49.3523C66.1332 49.3523 67.5672 49.544 68.486 49.9874C69.4047 50.4308 69.9719 51.1538 70.2555 52.2923C70.5391 53.4307 70.4113 54.7729 69.8761 56.3827C69.8761 56.3827 69.8721 56.3827 69.8721 56.3827ZM93.8632 61.843C93.0773 64.4654 91.8625 66.9396 90.2681 69.165C88.9436 70.9779 87.2569 72.496 85.3149 73.6228C83.3942 74.6776 81.2347 75.221 79.0435 75.2007C76.7067 75.2007 74.9252 74.7373 73.7028 73.8386C72.4805 72.9398 71.7056 71.4418 71.41 69.4885C71.1144 67.5352 71.41 65.0386 72.3886 62.0667C73.7468 57.9204 75.744 54.6902 78.3804 52.376C80.8259 50.131 84.0284 48.8914 87.3481 48.9048C90.7874 48.9048 93.0763 50.0352 94.1907 52.3001C95.3052 54.565 95.1934 57.7566 93.8672 61.843C93.8672 61.843 93.8632 61.843 93.8632 61.843ZM95.1894 43.5882L92.585 29.5036L87.6438 43.5882L81.7958 43.5882L90.7954 17.9354L96.6154 17.9354L99.2318 32.124L104.209 17.9354L110.085 17.9354L101.093 43.5882L95.1894 43.5882ZM99.5474 74.7654L100.019 49.3363L106.71 49.3363L105.383 67.6272L115.933 49.3363L122.424 49.3363L106.474 74.7654L99.5474 74.7654ZM138.011 64.0002L128.076 64.0002L126.446 68.9893L137.471 68.9893L135.606 74.7654L118.17 74.7654L126.446 49.3363L143.559 49.3363L141.789 54.7728L131.088 54.7728L129.762 58.8073L139.712 58.8073L138.011 64.0002ZM165.685 56.3826C165.271 57.7095 164.619 58.9496 163.759 60.0416C162.976 61.0375 162.014 61.8788 160.923 62.5222C160.13 62.9916 159.267 63.3302 158.367 63.5248C158.875 63.7514 159.339 64.0666 159.737 64.4556C159.981 64.884 160.178 65.3382 160.324 65.8097C160.504 66.3273 160.626 66.8631 160.687 67.4075C160.687 67.4075 161.41 74.7654 161.41 74.7654L154.164 74.7654C154.164 74.7654 153.27 66.9841 153.27 66.9841C153.174 65.9815 153.014 65.3383 152.758 65.0228C152.415 64.6203 151.904 64.4016 151.376 64.4316C151.376 64.4316 150.821 64.4316 150.821 64.4316L147.462 74.7654L141.038 74.7654L149.319 49.3363C149.319 49.3363 159.952 49.3363 159.952 49.3363C161.95 49.3363 163.384 49.528 164.294 49.9714C165.225 50.404 165.885 51.2651 166.06 52.2763C166.352 53.3947 166.204 54.7729 165.688 56.3826C165.688 56.3826 165.685 56.3826 165.685 56.3826Z" fill="url(#gradient_5)" transform="translate(5.369 5.644)" />
    <path id="Path" d="M7.46992 0C6.19168 0 4.98534 0.559231 3.82293 1.70167C2.66052 2.84411 1.68986 4.66161 0.83503 7.25804C-0.0197983 9.85448 -0.195557 11.652 0.203896 12.7825C0.603348 13.9129 1.49413 14.4681 2.81631 14.4681C4.2355 14.453 5.58607 13.855 6.55119 12.8144C7.64967 11.7239 8.66828 9.74662 9.59101 6.90253C10.3899 4.50581 10.5537 2.7722 10.1223 1.66172C9.69088 0.551247 8.82007 0 7.46992 0C7.46992 0 7.46992 0 7.46992 0Z" fill="url(#gradient_6)" fill-rule="evenodd" transform="translate(83.281 60.489)" />
    <path id="Shape" d="M101.269 0C45.4936 0 0 22.9245 0 51.006C0 79.0874 45.4976 102 101.269 102C157.04 102 202.534 79.0954 202.534 51.006C202.534 22.9165 157.052 0 101.269 0C101.269 0 101.269 0 101.269 0ZM101.269 99.032C46.7319 99.032 2.25293 77.4616 2.25293 51.0059C2.25293 24.5502 46.7359 2.98779 101.269 2.98779C155.802 2.98779 200.293 24.5582 200.293 51.0059C200.293 77.4536 155.818 99.032 101.269 99.032C101.269 99.032 101.269 99.032 101.269 99.032Z" fill="url(#gradient_7)" />
  </g>
</svg>