<?xml version="1.0" encoding="utf-8"?>
<svg width="34" height="40" viewBox="0 0 34 40" fill="none" xmlns="http://www.w3.org/2000/svg">
  <path id="Shape" d="M11 14C11.7562 14 12.4036 13.7258 12.9422 13.1775C13.4807 12.6292 13.75 11.97 13.75 11.2001C13.75 10.4301 13.4807 9.77087 12.9422 9.22253C12.4036 8.67419 11.7562 8.40002 11 8.40002C10.2438 8.40002 9.59637 8.67419 9.0578 9.22253C8.51929 9.77087 8.25 10.4301 8.25 11.2001C8.25 11.97 8.51929 12.6292 9.0578 13.1775C9.59637 13.7258 10.2438 14 11 14C11 14 11 14 11 14ZM11 24.29C13.7958 21.6766 15.8698 19.3025 17.2219 17.1675C18.574 15.0325 19.25 13.1366 19.25 11.48C19.25 8.93665 18.4537 6.85413 16.861 5.23254C15.2682 3.61084 13.3146 2.79999 11 2.79999C8.68542 2.79999 6.73175 3.61084 5.13904 5.23254C3.54633 6.85413 2.75 8.93665 2.75 11.48C2.75 13.1366 3.42603 15.0325 4.77814 17.1675C6.13019 19.3025 8.20416 21.6766 11 24.29C11 24.29 11 24.29 11 24.29ZM11 28C7.31042 24.8033 4.55469 21.8342 2.73279 19.0925C0.91095 16.3508 0 13.8134 0 11.48C0 7.97998 1.10571 5.19165 3.3172 3.11499C5.52863 1.03833 8.0896 0 11 0C13.9104 0 16.4714 1.03833 18.6828 3.11499C20.8943 5.19165 22 7.97998 22 11.48C22 13.8134 21.0891 16.3508 19.2672 19.0925C17.4453 21.8342 14.6896 24.8033 11 28C11 28 11 28 11 28Z" fill="#9E9E9E" transform="translate(6 2)" />
</svg>