<?xml version="1.0" encoding="utf-8"?>
<svg width="132" height="54" viewBox="0 0 132 54" fill="none" xmlns="http://www.w3.org/2000/svg">
  <path d="M1.188 25.128Q1.188 21.384 2.808 18.45Q4.428 15.516 7.326 13.878Q10.224 12.24 13.896 12.24Q18.396 12.24 21.6 14.616Q24.804 16.992 25.884 21.096L19.116 21.096Q18.36 19.512 16.974 18.684Q15.588 17.856 13.824 17.856Q10.98 17.856 9.216 19.836Q7.452 21.816 7.452 25.128Q7.452 28.44 9.216 30.42Q10.98 32.4 13.824 32.4Q15.588 32.4 16.974 31.572Q18.36 30.744 19.116 29.16L25.884 29.16Q24.804 33.264 21.6 35.622Q18.396 37.98 13.896 37.98Q10.224 37.98 7.326 36.342Q4.428 34.704 2.808 31.788Q1.188 28.872 1.188 25.128ZM28.44 27.72Q28.44 24.624 29.61 22.284Q30.78 19.944 32.796 18.684Q34.812 17.424 37.296 17.424Q39.42 17.424 41.022 18.288Q42.624 19.152 43.488 20.556L43.488 17.712L49.644 17.712L49.644 37.8L43.488 37.8L43.488 34.956Q42.588 36.36 40.986 37.224Q39.384 38.088 37.26 38.088Q34.812 38.088 32.796 36.81Q30.78 35.532 29.61 33.174Q28.44 30.816 28.44 27.72ZM43.488 27.756Q43.488 25.452 42.21 24.12Q40.932 22.788 39.096 22.788Q37.26 22.788 35.982 24.102Q34.704 25.416 34.704 27.72Q34.704 30.024 35.982 31.374Q37.26 32.724 39.096 32.724Q40.932 32.724 42.21 31.392Q43.488 30.06 43.488 27.756ZM60.264 21.06Q61.344 19.404 62.964 18.45Q64.584 17.496 66.564 17.496L66.564 24.012L64.872 24.012Q62.568 24.012 61.416 25.002Q60.264 25.992 60.264 28.476L60.264 37.8L54.108 37.8L54.108 17.712L60.264 17.712L60.264 21.06ZM86.292 20.52Q85.608 19.26 84.33 18.594Q83.052 17.928 81.324 17.928Q78.336 17.928 76.536 19.89Q74.736 21.852 74.736 25.128Q74.736 28.62 76.626 30.582Q78.516 32.544 81.828 32.544Q84.096 32.544 85.662 31.392Q87.228 30.24 87.948 28.08L80.136 28.08L80.136 23.544L93.528 23.544L93.528 29.268Q92.844 31.572 91.206 33.552Q89.568 35.532 87.048 36.756Q84.528 37.98 81.36 37.98Q77.616 37.98 74.682 36.342Q71.748 34.704 70.11 31.788Q68.472 28.872 68.472 25.128Q68.472 21.384 70.11 18.45Q71.748 15.516 74.664 13.878Q77.58 12.24 81.324 12.24Q85.86 12.24 88.974 14.436Q92.088 16.632 93.096 20.52L86.292 20.52ZM106.092 38.088Q103.14 38.088 100.782 36.828Q98.424 35.568 97.074 33.228Q95.724 30.888 95.724 27.756Q95.724 24.66 97.092 22.302Q98.46 19.944 100.836 18.684Q103.212 17.424 106.164 17.424Q109.116 17.424 111.492 18.684Q113.868 19.944 115.236 22.302Q116.604 24.66 116.604 27.756Q116.604 30.852 115.218 33.21Q113.832 35.568 111.438 36.828Q109.044 38.088 106.092 38.088ZM106.092 32.76Q107.856 32.76 109.098 31.464Q110.34 30.168 110.34 27.756Q110.34 25.344 109.134 24.048Q107.928 22.752 106.164 22.752Q104.364 22.752 103.176 24.03Q101.988 25.308 101.988 27.756Q101.988 30.168 103.158 31.464Q104.328 32.76 106.092 32.76ZM127.98 11.628L127.26 28.872L122.04 28.872L121.32 11.628L127.98 11.628ZM124.74 38.088Q123.12 38.088 122.094 37.134Q121.068 36.18 121.068 34.776Q121.068 33.336 122.094 32.364Q123.12 31.392 124.74 31.392Q126.324 31.392 127.35 32.364Q128.376 33.336 128.376 34.776Q128.376 36.18 127.35 37.134Q126.324 38.088 124.74 38.088Z" fill="#FFFFFF" />
</svg>