<?xml version="1.0" encoding="utf-8"?>
<svg width="103.124" height="102" viewBox="0 0 103.124 102" fill="none" xmlns="http://www.w3.org/2000/svg">
  <g id="Layer_51">
    <path id="Path" d="M2.39387 0.514524C2.39387 -0.156029 2.19047 -0.178379 2.13683 0.489937C2.13683 0.489937 0 32.3613 0 32.3613L2.12788 33.6063C2.12788 33.6063 2.39387 0.514524 2.39387 0.514524Z" fill="#000000" fill-rule="evenodd" transform="translate(49.004 16.556)" />
    <path id="Path" d="M0.47348 6.1065L9.44995 1.13324L7.41147 0C7.41147 0 0.220905 5.88298 0.220905 5.88298C-0.179192 6.2272 -0.000377655 6.37025 0.47348 6.1065C0.47348 6.1065 0.47348 6.1065 0.47348 6.1065Z" fill="#000000" fill-rule="evenodd" transform="translate(40.944 50.258)" />
    <path id="Shape" d="M51.5521 5.90058e-06C23.0871 -0.0134055 0 22.8368 0 51C0 79.1632 23.0715 101.991 51.5521 102C80.0327 102.009 103.124 79.1632 103.124 51C103.124 22.8368 80.0528 5.90058e-06 51.5521 5.90058e-06C51.5521 5.90058e-06 51.5521 5.90058e-06 51.5521 5.90058e-06ZM51.552 100.058C32.1798 100.058 16.9783 89.9881 9.74084 76.1412C9.74084 76.1412 10.8584 75.7321 10.8584 75.7321C12.7404 78.7988 15.1969 81.4966 18.4983 85.1422C22.5685 89.6126 35.4364 98.247 51.5409 98.247C68.0684 98.3075 83.4489 89.8062 92.1897 75.7791C92.8402 75.5958 93.048 75.3141 92.8312 74.7486C96.7026 67.9291 99.3311 59.3617 99.3311 50.991C99.3311 45.7182 98.5578 41.4289 97.3306 37.5956C96.5711 35.2343 95.6464 32.9294 94.5635 30.6978C94.4415 30.5006 94.3787 30.2725 94.3824 30.0406C94.5773 30.1879 94.7344 30.3795 94.8406 30.5994C95.5894 31.9651 97.2658 35.3112 98.0526 37.4883C99.1143 40.394 101.007 44.4173 101.007 50.991C101.019 77.822 79.0357 100.073 51.552 100.058C51.552 100.058 51.552 100.058 51.552 100.058ZM10.2707 74.9565L46.3755 49.0061L43.2865 47.2448C43.2865 47.2448 11.1201 73.982 11.1201 73.982C7.50803 67.4352 4.99792 59.0309 4.99792 51.0379C4.99792 25.7246 25.1503 5.23248 50.667 5.07601C50.667 5.07601 44.0844 46.0133 44.0844 46.0133L47.16 47.8014C47.16 47.8014 51.2951 5.08272 51.2951 5.08272C51.3733 4.54404 51.7421 4.54404 51.7421 5.08272C51.7421 5.08272 51.9858 50.1304 51.9858 50.1304L59.3127 45.83C59.3127 45.83 52.292 5.06707 52.292 5.06707C77.3707 5.73762 98.1488 25.9637 98.1488 50.9575C98.1488 59.0175 95.7125 67.4352 92.0245 74.0222C92.0245 74.0222 59.8916 47.2605 59.8916 47.2605L56.7981 49.0263C56.7981 49.0263 91.336 74.0714 91.336 74.0714C92.1653 74.6615 91.9105 74.9297 91.0276 74.438C91.0276 74.438 52.2451 52.0728 52.2451 52.0728L52.2451 60.4547C52.2451 60.4547 91.117 75.3052 91.117 75.3052C82.9698 88.5911 68.2757 97.0892 51.4516 97.0892C34.5916 97.0892 20.1345 88.5956 11.9873 75.2896C11.9873 75.2896 50.9285 60.4279 50.9285 60.4279L50.9285 52.0482C50.9285 52.0482 10.6015 75.341 10.6015 75.341C9.64485 75.8685 9.39004 75.5734 10.2707 74.9565C10.2707 74.9565 10.2707 74.9565 10.2707 74.9565ZM9.27812 75.4528C7.57268 71.919 5.7756 66.939 5.03129 62.9984C4.99501 62.791 5.00416 62.5782 5.05811 62.3748C5.18226 62.5615 5.27793 62.7656 5.34198 62.9805C6.51098 66.597 7.53245 69.8492 10.199 74.7353C10.199 74.7353 9.27812 75.4528 9.27812 75.4528ZM100.934 42.3477C100.811 42.1696 100.716 41.9736 100.652 41.7665C96.8837 30.1436 93.6739 25.5771 87.487 18.7867C79.3353 9.84598 66.0293 2.93258 51.8672 2.91694C24.7992 2.91471 2.84089 24.8798 2.84089 51.9433C2.84089 59.9899 4.5955 66.9391 6.00589 70.4304C7.65992 74.4783 10.5209 79.9299 10.664 80.1758C10.7642 80.3772 10.8162 80.5991 10.816 80.824C10.6299 80.6754 10.473 80.4935 10.3533 80.2875C9.533 79.0962 6.1713 73.0411 5.12971 70.3947C2.84089 64.6346 1.16003 58.3515 1.16003 51.7578C1.16003 23.8628 23.7353 1.2428 51.6504 1.2428C76.586 1.2428 96.6892 18.5654 100.934 41.7509C100.976 41.9476 100.976 42.151 100.934 42.3477C100.934 42.3477 100.934 42.3477 100.934 42.3477Z" fill="#000000" />
    <path id="Path" d="M28.7622 17.8099L2.186 0L0 1.24946C0 1.24946 28.6348 18.0133 28.6348 18.0133C29.1444 18.3061 29.2517 18.125 28.7622 17.8099C28.7622 17.8099 28.7622 17.8099 28.7622 17.8099Z" fill="#000000" fill-rule="evenodd" transform="translate(52.712 50.162)" />
  </g>
</svg>