<?xml version="1.0" encoding="utf-8"?>
<svg width="102" height="110.361" viewBox="0 0 102 110.361" fill="none" xmlns="http://www.w3.org/2000/svg">
  <g id="Layer_52">
    <path id="Path" d="M16.9763 0L0 29.2562L16.9763 58.3714L34.0778 29.2562L16.9763 0L16.9763 0Z" fill="#F70000" fill-rule="evenodd" transform="translate(33.962 0)" />
    <path id="Path" d="M0 0L17.1014 29.151L51.0613 29.151L34.0922 0L0 0L0 0Z" fill="#F70000" fill-rule="evenodd" transform="translate(50.939 58.371)" />
    <path id="Path" d="M0 29.151L33.9623 29.151L50.9387 0L16.986 0L0 29.151L0 29.151Z" fill="#F70000" fill-rule="evenodd" transform="translate(0 58.371)" />
    <path id="Path" d="M5.54816 6.39165L2.78971 0L0 0L0 14.0315L2.52277 14.0315L2.52277 4.8876L5.54816 11.5255L8.72506 4.8876L8.72506 14.0315L11.2526 14.0315L11.2526 0L8.47495 0L5.54816 6.39165L5.54816 6.39165Z" fill="#000000" fill-rule="evenodd" transform="translate(7.01 95.958)" />
    <rect id="Rectangle" width="2.528" height="14.029" fill="#000000" fill-rule="evenodd" transform="translate(20.526 95.958)" />
    <path id="Path" d="M0 2.1425L3.02539 2.1425L3.02539 14.0315L5.55297 14.0315L5.55297 2.1425L8.59038 2.1425L8.59038 0L0 0L0 2.1425L0 2.1425Z" fill="#000000" fill-rule="evenodd" transform="translate(24.201 95.958)" />
    <path id="Path" d="M5.4231 6.00668C3.40778 5.00476 2.6382 4.505 2.6382 3.50549C2.6382 2.61597 3.26588 2.12099 4.40823 2.12099C5.67562 2.12099 6.30331 3.25202 6.30331 4.38784C6.30331 4.38784 8.85252 4.38784 8.85252 4.38784C8.72266 1.99664 7.58512 0 4.42025 0C1.5151 0 0.12746 1.50406 0.12746 3.63222C0.12746 5.62887 1.39486 6.7599 3.27791 7.87898C5.95218 9.38543 6.56544 9.76802 6.56544 10.6336C6.56544 11.6427 5.81751 12.262 4.5405 12.262C3.03261 12.262 2.40492 11.0186 2.40492 9.76802C2.40492 9.76802 0 9.76802 0 9.76802C0.132271 12.3983 1.2722 14.5193 4.5453 14.5193C6.95023 14.5193 9.09782 13.1468 9.09782 10.5189C9.09301 8.25677 7.69576 7.26443 5.4231 6.00668C5.4231 6.00668 5.4231 6.00668 5.4231 6.00668Z" fill="#000000" fill-rule="evenodd" transform="translate(32.921 95.841)" />
    <path id="Path" d="M7.05124 9.65085C7.05124 11.1549 6.32976 12.0205 4.9325 12.0205C3.26829 12.0205 2.50834 11.1549 2.50834 9.65085C2.50834 9.65085 2.50834 0 2.50834 0L0 0C0 0 0 9.65085 0 9.65085C0 13.3931 2.64542 14.2802 4.9325 14.2802C7.05124 14.2802 9.59084 13.2831 9.59084 9.65085C9.59084 9.65085 9.59084 0 9.59084 0L7.05124 0L7.05124 9.65085C7.05124 9.65085 7.05124 9.65085 7.05124 9.65085Z" fill="#000000" fill-rule="evenodd" transform="translate(43.07 95.958)" />
    <path id="Shape" d="M6.94061 6.64273C7.5731 6.50883 8.96555 5.38975 8.96555 3.51505C8.96555 1.26255 7.31097 0 4.66796 0C4.66796 0 0 0 0 0L0 14.0315C0 14.0315 5.18261 14.0315 5.18261 14.0315C7.70056 14.0315 9.4754 12.4031 9.4754 10.1434C9.52178 8.54149 8.48323 7.1072 6.94061 6.64273C6.94061 6.64273 6.94061 6.64273 6.94061 6.64273ZM4.53571 11.9034L2.50836 11.9034L2.50836 2.14734C2.50836 2.14734 4.41306 2.14734 4.41306 2.14734C5.5554 2.14734 6.42839 2.63992 6.42839 3.8953C6.42839 5.15067 5.67084 5.64565 4.41306 5.64565C4.41306 5.64565 3.41021 5.64565 3.41021 5.64565L3.41021 7.89337C3.41021 7.89337 4.41306 7.89337 4.41306 7.89337C5.92336 7.89337 6.81799 8.40509 6.81799 9.77284C6.81558 11.2793 5.92816 11.8986 4.53571 11.8986C4.53571 11.8986 4.53571 11.9034 4.53571 11.9034Z" fill="#000000" transform="translate(54.313 95.958)" />
    <path id="Path" d="M7.69095 5.5117L2.64301 5.5117L2.64301 0L0 0L0 14.0315L2.64301 14.0315L2.64301 7.88853L7.82081 7.88853L7.82081 14.0315L10.334 14.0315L10.334 0L7.69095 0L7.69095 5.5117L7.69095 5.5117Z" fill="#000000" fill-rule="evenodd" transform="translate(79.711 95.958)" />
    <rect id="Rectangle" width="2.53" height="14.029" fill="#000000" fill-rule="evenodd" transform="translate(65.171 95.958)" />
    <rect id="Rectangle" width="2.523" height="14.029" fill="#000000" fill-rule="evenodd" transform="translate(92.467 95.958)" />
    <path id="Path" d="M5.46398 6.00906C3.4246 4.88759 2.66946 4.38065 2.66946 3.50787C2.66946 2.63509 3.41739 2.13533 4.42746 2.13533C5.69485 2.13533 6.32976 3.13485 6.4548 4.38066C6.4548 4.38066 8.84771 4.38066 8.84771 4.38066C8.72505 2.01099 7.59956 0 4.42746 0C1.52232 0 0.132271 1.51123 0.132271 3.637C0.132271 5.63842 1.40207 6.7575 3.29715 7.77375C5.95699 9.26585 6.56544 9.76322 6.56544 10.6432C6.56544 11.6355 5.82713 12.262 4.56935 12.262C3.04704 12.262 2.40492 10.8823 2.40492 9.63171C2.40492 9.63171 0 9.63171 0 9.63171C0.120247 12.3864 1.26018 14.395 4.55733 14.395C6.96226 14.395 9.10745 13.0152 9.10745 10.5188C9.10744 8.13721 7.72221 7.26921 5.46398 6.00906C5.46398 6.00906 5.46398 6.00906 5.46398 6.00906Z" fill="#000000" fill-rule="evenodd" transform="translate(69.332 95.71)" />
  </g>
</svg>