<?xml version="1.0" encoding="utf-8"?>
<svg width="54.871" height="39.991" viewBox="0 0 54.871 39.991" fill="none" xmlns="http://www.w3.org/2000/svg">
  <path id="Shape" d="M32.4238 22.4949C30.3453 22.4949 28.5787 21.7659 27.1238 20.3079C25.6688 18.8499 24.9414 17.0793 24.9414 14.9966C24.9414 12.9138 25.6688 11.1433 27.1238 9.6853C28.5787 8.22729 30.3453 7.49829 32.4238 7.49829C34.5023 7.49829 36.2689 8.22729 37.7239 9.6853C39.1787 11.1433 39.9063 12.9138 39.9063 14.9966C39.9063 17.0793 39.1787 18.8499 37.7239 20.3079C36.2689 21.7659 34.5023 22.4949 32.4238 22.4949C32.4238 22.4949 32.4238 22.4949 32.4238 22.4949ZM14.9648 29.9932C13.593 29.9932 12.4187 29.5037 11.4419 28.5247C10.465 27.5457 9.97656 26.3689 9.97656 24.9941C9.97656 24.9941 9.97656 4.99878 9.97656 4.99878C9.97656 3.62427 10.465 2.44727 11.4419 1.46851C12.4187 0.489502 13.593 0 14.9648 0C14.9648 0 49.8827 0 49.8827 0C51.2545 0 52.4288 0.489502 53.4058 1.46851C54.3826 2.44727 54.871 3.62427 54.871 4.99878C54.871 4.99878 54.871 24.9941 54.871 24.9941C54.871 26.3689 54.3826 27.5457 53.4058 28.5247C52.4288 29.5037 51.2545 29.9932 49.8827 29.9932C49.8827 29.9932 14.9648 29.9932 14.9648 29.9932C14.9648 29.9932 14.9648 29.9932 14.9648 29.9932ZM19.9531 24.9941C19.9531 24.9941 44.8945 24.9941 44.8945 24.9941C44.8945 23.6194 45.3829 22.4426 46.3597 21.4636C47.3367 20.4849 48.511 19.9954 49.8828 19.9954C49.8828 19.9954 49.8828 9.99756 49.8828 9.99756C48.511 9.99756 47.3367 9.50806 46.3597 8.5293C45.3829 7.55029 44.8945 6.37354 44.8945 4.99878C44.8945 4.99878 19.9531 4.99878 19.9531 4.99878C19.9531 6.37354 19.4647 7.55029 18.4878 8.5293C17.511 9.50806 16.3367 9.99756 14.9648 9.99756C14.9648 9.99756 14.9648 19.9954 14.9648 19.9954C16.3367 19.9954 17.511 20.4849 18.4878 21.4636C19.4647 22.4426 19.9531 23.6194 19.9531 24.9941C19.9531 24.9941 19.9531 24.9941 19.9531 24.9941ZM47.3885 39.9907C47.3885 39.9907 4.98828 39.9907 4.98828 39.9907C3.61646 39.9907 2.44214 39.5012 1.46533 38.5225C0.488403 37.5435 0 36.3667 0 34.9919C0 34.9919 0 7.49829 0 7.49829L4.98828 7.49829L4.98828 34.9919L47.3885 34.9919L47.3885 39.9907L47.3885 39.9907ZM14.9648 24.9941L14.9648 4.99878L14.9648 24.9941L14.9648 24.9941Z" fill="#E8EAED" />
</svg>