<?xml version="1.0" encoding="utf-8"?>
<svg width="25" height="25" viewBox="0 0 25 25" fill="none" xmlns="http://www.w3.org/2000/svg">
  <path id="path1826" d="M12.5061 0C9.06885 0 6.24829 2.81085 6.24829 6.24817C6.24829 9.68549 9.06885 12.5061 12.5061 12.5061C15.9436 12.5061 18.752 9.68549 18.752 6.24817C18.752 2.81085 15.9436 0 12.5061 0C12.5061 0 12.5061 0 12.5061 0ZM7.50317 13.7513C3.75049 13.7513 0 16.2516 0 19.9971C0 19.9971 0 22.7757 0 22.7757C0.238281 24.3386 1.25024 25.0024 2.50269 25C2.50269 25 22.4998 25 22.4998 25C23.7524 25.0025 24.5793 23.9568 25 22.7757C25 22.7757 25 19.9971 25 19.9971C25.0024 15.0015 21.252 13.7513 17.4968 13.7513C17.4968 13.7513 7.50317 13.7513 7.50317 13.7513Z" fill="#FFFFFF" />
</svg>