<?xml version="1.0" encoding="utf-8"?>
<svg width="159" height="198" viewBox="0 0 159 198" fill="none" xmlns="http://www.w3.org/2000/svg">
  <path id="Shape" d="M64.5938 133.65L94.4063 133.65L94.4063 108.9L119.25 108.9L119.25 79.2001L94.4063 79.2001L94.4063 54.4501L64.5938 54.4501L64.5938 79.2001L39.75 79.2001L39.75 108.9L64.5938 108.9L64.5938 133.65L64.5938 133.65ZM79.5 198C56.478 192.225 37.4727 179.066 22.4834 158.524C7.49463 137.981 0 115.17 0 90.09C0 90.09 0 29.7 0 29.7L79.5 0L159 29.7C159 29.7 159 90.09 159 90.09C159 115.17 151.505 137.981 136.517 158.524C121.527 179.066 102.522 192.225 79.5 198C79.5 198 79.5 198 79.5 198ZM79.5 177.21C96.7251 171.765 110.969 160.875 122.231 144.54C133.494 128.205 139.125 110.055 139.125 90.09C139.125 90.09 139.125 43.3125 139.125 43.3125L79.5 21.0375L19.875 43.3125C19.875 43.3125 19.875 90.09 19.875 90.09C19.875 110.055 25.5063 128.205 36.7686 144.54C48.0313 160.875 62.2749 171.765 79.5 177.21C79.5 177.21 79.5 177.21 79.5 177.21Z" fill="#FFFFFF" />
</svg>