<?xml version="1.0" encoding="utf-8"?>
<svg width="18" height="18" viewBox="0 0 18 18" fill="none" xmlns="http://www.w3.org/2000/svg">
  <path id="Shape" d="M16.6 18C16.6 18 10.3 11.7 10.3 11.7C9.80005 12.1 9.22498 12.4166 8.57495 12.65C7.92505 12.8833 7.23328 13 6.5 13C4.68335 13 3.14587 12.3708 1.88745 11.1125C0.62915 9.85413 0 8.31665 0 6.5C0 4.68335 0.62915 3.14587 1.88745 1.88745C3.14587 0.62915 4.68335 0 6.5 0C8.31665 0 9.85413 0.62915 11.1125 1.88745C12.3708 3.14587 13 4.68335 13 6.5C13 7.23328 12.8833 7.92505 12.65 8.57495C12.4166 9.22498 12.1 9.80005 11.7 10.3C11.7 10.3 18 16.6 18 16.6L16.6 18L16.6 18ZM6.5 11C7.75 11 8.8125 10.5625 9.6875 9.6875C10.5625 8.8125 11 7.75 11 6.5C11 5.25 10.5625 4.1875 9.6875 3.3125C8.8125 2.4375 7.75 2 6.5 2C5.25 2 4.1875 2.4375 3.3125 3.3125C2.4375 4.1875 2 5.25 2 6.5C2 7.75 2.4375 8.8125 3.3125 9.6875C4.1875 10.5625 5.25 11 6.5 11C6.5 11 6.5 11 6.5 11Z" fill="#E8EAED" />
</svg>