<?xml version="1.0" encoding="utf-8"?>
<svg width="33" height="17" viewBox="0 0 33 17" fill="none" xmlns="http://www.w3.org/2000/svg">
  <path id="Shape" d="M0 16.9995C0 16.9995 0 14.7686 0 14.7686C0 13.7529 0.50415 12.9268 1.51245 12.2891C2.52087 11.6519 3.84998 11.333 5.5 11.333C5.79797 11.333 6.08435 11.3389 6.35938 11.3506C6.6344 11.3623 6.89795 11.3921 7.15002 11.4395C6.82922 11.9351 6.5885 12.4546 6.4281 12.9976C6.2677 13.5405 6.1875 14.1074 6.1875 14.6978C6.1875 14.6978 6.1875 16.9995 6.1875 16.9995L0 16.9995L0 16.9995ZM8.25 17C8.25 17 8.25 14.6978 8.25 14.6978C8.25 13.9424 8.45056 13.252 8.85156 12.626C9.25256 12.0005 9.81982 11.4512 10.5531 10.979C11.2865 10.5068 12.163 10.1528 13.1829 9.9165C14.2026 9.68066 15.3083 9.5625 16.5 9.5625C17.7146 9.5625 18.8318 9.68066 19.8516 9.9165C20.8713 10.1528 21.7479 10.5068 22.4812 10.979C23.2146 11.4512 23.776 12.0005 24.1656 12.626C24.5552 13.252 24.75 13.9424 24.75 14.6978C24.75 14.6978 24.75 17 24.75 17L8.25 17L8.25 17ZM26.8125 16.9995C26.8125 16.9995 26.8125 14.6978 26.8125 14.6978C26.8125 14.0835 26.7379 13.5054 26.589 12.9624C26.4401 12.4189 26.2167 11.9116 25.9187 11.4395C26.1708 11.3921 26.4286 11.3623 26.6921 11.3506C26.9557 11.3389 27.225 11.333 27.5 11.333C29.1499 11.333 30.4791 11.646 31.4874 12.2715C32.4958 12.8975 33 13.7295 33 14.7686C33 14.7686 33 16.9995 33 16.9995L26.8125 16.9995L26.8125 16.9995ZM11.1719 14.1665C11.1719 14.1665 21.8625 14.1665 21.8625 14.1665C21.6333 13.6943 20.9974 13.2808 19.9547 12.9268C18.912 12.5728 17.7604 12.3955 16.5 12.3955C15.2396 12.3955 14.088 12.5728 13.0453 12.9268C12.0026 13.2808 11.3782 13.6943 11.1719 14.1665C11.1719 14.1665 11.1719 14.1665 11.1719 14.1665ZM5.5 9.9165C4.74377 9.9165 4.09631 9.63916 3.55786 9.08447C3.01929 8.5293 2.75 7.8623 2.75 7.0835C2.75 6.28076 3.01929 5.60742 3.55786 5.06445C4.09631 4.52148 4.74377 4.25 5.5 4.25C6.27917 4.25 6.93225 4.52148 7.45935 5.06445C7.98645 5.60742 8.25 6.28076 8.25 7.0835C8.25 7.8623 7.98645 8.5293 7.45935 9.08447C6.93225 9.63916 6.27917 9.9165 5.5 9.9165C5.5 9.9165 5.5 9.9165 5.5 9.9165ZM27.5 9.9165C26.7438 9.9165 26.0963 9.63916 25.5579 9.08447C25.0193 8.5293 24.75 7.8623 24.75 7.0835C24.75 6.28076 25.0193 5.60742 25.5579 5.06445C26.0963 4.52148 26.7438 4.25 27.5 4.25C28.2792 4.25 28.9323 4.52148 29.4594 5.06445C29.9865 5.60742 30.25 6.28076 30.25 7.0835C30.25 7.8623 29.9865 8.5293 29.4594 9.08447C28.9323 9.63916 28.2792 9.9165 27.5 9.9165C27.5 9.9165 27.5 9.9165 27.5 9.9165ZM16.5 8.5C15.3541 8.5 14.3802 8.08691 13.5781 7.26025C12.776 6.43408 12.375 5.43066 12.375 4.25C12.375 3.0459 12.776 2.03662 13.5781 1.22168C14.3802 0.407227 15.3541 0 16.5 0C17.6687 0 18.6484 0.407227 19.4391 1.22168C20.2297 2.03662 20.625 3.0459 20.625 4.25C20.625 5.43066 20.2297 6.43408 19.4391 7.26025C18.6484 8.08691 17.6687 8.5 16.5 8.5C16.5 8.5 16.5 8.5 16.5 8.5ZM16.5 5.6665C16.8895 5.6665 17.2162 5.53076 17.4797 5.25928C17.7433 4.9873 17.875 4.65088 17.875 4.24951C17.875 3.84814 17.7433 3.51172 17.4797 3.24023C17.2162 2.96875 16.8895 2.83301 16.5 2.83301C16.1105 2.83301 15.7838 2.96875 15.5203 3.24023C15.2567 3.51172 15.125 3.84814 15.125 4.24951C15.125 4.65088 15.2567 4.9873 15.5203 5.25928C15.7838 5.53076 16.1105 5.6665 16.5 5.6665C16.5 5.6665 16.5 5.6665 16.5 5.6665Z" fill="#FFFFFF" />
</svg>