<?xml version="1.0" encoding="utf-8"?>
<svg width="54.871" height="54.598" viewBox="0 0 54.871 54.598" fill="none" xmlns="http://www.w3.org/2000/svg">
  <path id="Path" d="M19.9283 54.598C19.9283 54.598 18.8363 45.8623 18.8363 45.8623C18.2448 45.6348 17.6875 45.3619 17.1642 45.0434C16.641 44.7249 16.1292 44.3836 15.6287 44.0196C15.6287 44.0196 7.50723 47.432 7.50723 47.432L0 34.465C0 34.465 7.02949 29.1417 7.02949 29.1417C6.98399 28.8232 6.96125 28.5161 6.96125 28.2203C6.96125 28.2203 6.96125 26.3777 6.96125 26.3777C6.96125 26.0819 6.98399 25.7748 7.02949 25.4563C7.02949 25.4563 0 20.133 0 20.133L7.50723 7.16599C7.50723 7.16599 15.6287 10.5784 15.6287 10.5784C16.1292 10.2144 16.6524 9.87314 17.1984 9.55465C17.7444 9.23616 18.2903 8.96317 18.8363 8.73568C18.8363 8.73568 19.9283 0 19.9283 0L34.9427 0C34.9427 0 36.0347 8.73568 36.0347 8.73568C36.6262 8.96317 37.1835 9.23616 37.7068 9.55465C38.23 9.87314 38.7418 10.2144 39.2423 10.5784C39.2423 10.5784 47.3638 7.16599 47.3638 7.16599L54.871 20.133C54.871 20.133 47.8415 25.4563 47.8415 25.4563C47.887 25.7748 47.9098 26.0819 47.9098 26.3777C47.9098 26.3777 47.9098 28.2203 47.9098 28.2203C47.9098 28.5161 47.8643 28.8232 47.7733 29.1417C47.7733 29.1417 54.8028 34.465 54.8028 34.465L47.2955 47.432C47.2955 47.432 39.2423 44.0196 39.2423 44.0196C38.7418 44.3836 38.2186 44.7249 37.6726 45.0434C37.1266 45.3619 36.5807 45.6348 36.0347 45.8623C36.0347 45.8623 34.9427 54.598 34.9427 54.598L19.9283 54.598L19.9283 54.598Z" />
</svg>