<?xml version="1.0" encoding="utf-8"?>
<svg width="54.871" height="54.598" viewBox="0 0 54.871 54.598" fill="none" xmlns="http://www.w3.org/2000/svg">
  <path id="Shape" d="M19.9282 54.5979C19.9282 54.5979 18.8363 45.8623 18.8363 45.8623C18.2449 45.6348 17.6875 45.3618 17.1643 45.0435C16.641 44.7249 16.1292 44.3835 15.6287 44.0195C15.6287 44.0195 7.5072 47.4321 7.5072 47.4321L0 34.4651C0 34.4651 7.02954 29.1416 7.02954 29.1416C6.98401 28.8232 6.9613 28.5161 6.9613 28.2205C6.9613 28.2205 6.9613 26.3777 6.9613 26.3777C6.9613 26.082 6.98401 25.7749 7.02954 25.4563C7.02954 25.4563 0 20.1331 0 20.1331L7.5072 7.16602C7.5072 7.16602 15.6287 10.5784 15.6287 10.5784C16.1292 10.2144 16.6523 9.87305 17.1984 9.55469C17.7444 9.23608 18.2903 8.96313 18.8363 8.7356C18.8363 8.7356 19.9282 0 19.9282 0L34.9427 0C34.9427 0 36.0347 8.7356 36.0347 8.7356C36.6262 8.96313 37.1835 9.23608 37.7068 9.55469C38.23 9.87305 38.7418 10.2144 39.2423 10.5784C39.2423 10.5784 47.3638 7.16602 47.3638 7.16602L54.871 20.1331C54.871 20.1331 47.8416 25.4563 47.8416 25.4563C47.887 25.7749 47.9098 26.082 47.9098 26.3777C47.9098 26.3777 47.9098 28.2205 47.9098 28.2205C47.9098 28.5161 47.8643 28.8232 47.7733 29.1416C47.7733 29.1416 54.8027 34.4651 54.8027 34.4651L47.2955 47.4321C47.2955 47.4321 39.2423 44.0195 39.2423 44.0195C38.7418 44.3835 38.2186 44.7249 37.6726 45.0435C37.1267 45.3618 36.5807 45.6348 36.0347 45.8623C36.0347 45.8623 34.9427 54.5979 34.9427 54.5979L19.9282 54.5979L19.9282 54.5979ZM24.7057 49.1382L30.0972 49.1382C30.0972 49.1382 31.0526 41.9038 31.0526 41.9038C32.4631 41.5398 33.7711 41.0054 34.9769 40.3C36.1826 39.595 37.2859 38.7417 38.2869 37.7407C38.2869 37.7407 45.0433 40.5391 45.0433 40.5391L47.7051 35.8982C47.7051 35.8982 41.8357 31.4619 41.8357 31.4619C42.0632 30.825 42.2225 30.1541 42.3135 29.4487C42.4045 28.7434 42.45 28.0269 42.45 27.2988C42.45 26.571 42.4045 25.8542 42.3135 25.1492C42.2225 24.4438 42.0632 23.7727 41.8357 23.1357C41.8357 23.1357 47.7051 18.6997 47.7051 18.6997L45.0433 14.0588C45.0433 14.0588 38.2869 16.9253 38.2869 16.9253C37.2859 15.8789 36.1826 15.0029 34.9769 14.2979C33.7711 13.5925 32.4631 13.0579 31.0526 12.6938C31.0526 12.6938 30.1654 5.45972 30.1654 5.45972L24.7739 5.45972C24.7739 5.45972 23.8184 12.6938 23.8184 12.6938C22.408 13.0579 21.0999 13.5925 19.8942 14.2979C18.6885 15.0029 17.5851 15.8562 16.5842 16.8569C16.5842 16.8569 9.82764 14.0588 9.82764 14.0588L7.16602 18.6997C7.16602 18.6997 13.0353 23.0676 13.0353 23.0676C12.8079 23.75 12.6486 24.4326 12.5576 25.115C12.4666 25.7974 12.421 26.5254 12.421 27.2988C12.421 28.0269 12.4666 28.7322 12.5576 29.4146C12.6486 30.0972 12.8079 30.7795 13.0353 31.4619C13.0353 31.4619 7.16602 35.8982 7.16602 35.8982L9.82764 40.5391C9.82764 40.5391 16.5842 37.6726 16.5842 37.6726C17.5851 38.719 18.6885 39.595 19.8942 40.3C21.0999 41.0054 22.408 41.5398 23.8184 41.9038C23.8184 41.9038 24.7057 49.1382 24.7057 49.1382L24.7057 49.1382ZM27.572 36.8538C30.2109 36.8538 32.463 35.9209 34.3285 34.0557C36.194 32.1902 37.1266 29.938 37.1266 27.2991C37.1266 24.6602 36.194 22.408 34.3285 20.5425C32.463 18.677 30.2109 17.7444 27.572 17.7444C24.8876 17.7444 22.624 18.677 20.7814 20.5425C18.9387 22.408 18.0173 24.6602 18.0173 27.2991C18.0173 29.938 18.9387 32.1902 20.7814 34.0557C22.624 35.9209 24.8876 36.8538 27.572 36.8538C27.572 36.8538 27.572 36.8538 27.572 36.8538Z" fill="#FFFFFF" />
</svg>