<?xml version="1.0" encoding="utf-8"?>
<svg width="30" height="30" viewBox="0 0 30 30" fill="none" xmlns="http://www.w3.org/2000/svg">
  <path id="Path" d="M13.5 30L13.5 23.7749L8.625 28.5752L6.52502 26.4751L13.5 19.5L13.5 16.5L10.5 16.5L3.52502 23.4751L1.42505 21.375L6.22498 16.5L0 16.5L0 13.5L6.22498 13.5L1.42505 8.625L3.52502 6.5249L10.5 13.5L13.5 13.5L13.5 10.5L6.52502 3.5249L8.625 1.4248L13.5 6.2251L13.5 0L16.5 0L16.5 6.2251L21.375 1.4248L23.475 3.5249L16.5 10.5L16.5 13.5L19.5 13.5L26.475 6.5249L28.575 8.625L23.775 13.5L30 13.5L30 16.5L23.775 16.5L28.575 21.375L26.475 23.4751L19.5 16.5L16.5 16.5L16.5 19.5L23.475 26.4751L21.375 28.5752L16.5 23.7749L16.5 30L13.5 30L13.5 30Z" fill="#FFFFFF" fill-rule="evenodd" />
</svg>