<?xml version="1.0" encoding="utf-8"?>
<svg width="41" height="36.393" viewBox="0 0 41 36.393" fill="none" xmlns="http://www.w3.org/2000/svg">
  <path id="Shape" d="M33.0062 36.3931C32.686 36.3931 32.3679 36.2993 32.0951 36.1157C32.0951 36.1157 21.786 29.1763 21.786 29.1763C21.786 29.1763 16.2568 33.1245 16.2568 33.1245C15.8231 33.4336 15.2642 33.5117 14.7606 33.333C14.2578 33.1538 13.8759 32.7407 13.7395 32.228C13.7395 32.228 10.9633 21.7871 10.9633 21.7871C10.9633 21.7871 1.04321 18.0229 1.04321 18.0229C0.418701 17.7861 0.00463867 17.1929 0 16.5293C-0.0045166 15.8657 0.401489 15.2676 1.02295 15.022C1.02295 15.022 38.7423 0.12793 38.7423 0.12793C38.9135 0.0556641 39.0946 0.0141602 39.2772 0.00292969C39.3427 -0.000976563 39.4082 -0.000976563 39.4733 0.00292969C39.8516 0.0249023 40.2231 0.177734 40.5131 0.459961C40.5431 0.489258 40.5717 0.519043 40.5988 0.550293C40.839 0.822754 40.9709 1.15479 40.9958 1.49268C41.0018 1.57764 41.0015 1.66406 40.9939 1.75C40.9886 1.81152 40.9799 1.87256 40.9673 1.93359C40.9673 1.93359 34.6005 35.084 34.6005 35.084C34.498 35.6167 34.1328 36.0625 33.6282 36.27C33.428 36.3525 33.2166 36.3931 33.0062 36.3931C33.0062 36.3931 33.0062 36.3931 33.0062 36.3931ZM22.6912 25.8931L31.8741 32.0747L36.8281 6.2793L18.9355 23.3652C18.9355 23.3652 22.6479 25.8643 22.6479 25.8643C22.6628 25.8735 22.6771 25.8833 22.6912 25.8931C22.6912 25.8931 22.6912 25.8931 22.6912 25.8931ZM15.0468 24.5186L16.2762 29.1421L18.9253 27.2505C18.9253 27.2505 15.4565 24.9155 15.4565 24.9155C15.2954 24.8071 15.1573 24.6724 15.0468 24.5186C15.0468 24.5186 15.0468 24.5186 15.0468 24.5186ZM6.08838 16.4883C6.08838 16.4883 12.8999 19.0728 12.8999 19.0728C13.3879 19.2578 13.7562 19.665 13.8895 20.166C13.8895 20.166 14.7533 23.415 14.7533 23.415C14.793 23.04 14.9641 22.6875 15.2422 22.4219C15.2422 22.4219 32.2913 6.14209 32.2913 6.14209L6.08838 16.4883L6.08838 16.4883Z" fill="#FFFFFF" />
</svg>