<?xml version="1.0" encoding="utf-8"?>
<svg width="53.008" height="30" viewBox="0 0 53.008 30" fill="none" xmlns="http://www.w3.org/2000/svg">
  <path id="Path" d="M50.812 24.3003C49.2338 22.4072 47.3765 20.7915 45.6191 19.0762C44.0337 17.5293 43.9337 16.6323 45.2083 14.8477C46.5991 12.8994 48.095 11.0264 49.4985 9.08691C50.8087 7.27441 52.1479 5.46729 52.8374 3.29736C53.2747 1.9165 52.8879 1.30713 51.4723 1.06543C51.2284 1.02295 50.9762 1.02051 50.7279 1.02051C50.7279 1.02051 42.3291 1.01074 42.3291 1.01074C41.2947 0.995605 40.7229 1.44629 40.3571 2.36328C39.8632 3.60254 39.3539 4.84082 38.7656 6.03711C37.4307 8.74854 35.9398 11.3696 33.8496 13.5889C33.3887 14.0786 32.8789 14.6973 32.1086 14.4419C31.1451 14.0903 30.8612 12.5029 30.8771 11.9663C30.8771 11.9663 30.8689 2.27148 30.8689 2.27148C30.6821 0.886719 30.375 0.269043 29 0C29 0 20.2754 0.00146484 20.2754 0.00146484C19.1108 0.00146484 18.5269 0.45166 17.905 1.18018C17.5464 1.60107 17.4381 1.87402 18.1753 2.01318C19.6234 2.28809 20.4391 3.2251 20.6555 4.67725C21.0028 6.99707 20.9786 9.32666 20.7786 11.6558C20.7198 12.3359 20.6028 13.0142 20.3331 13.6494C19.9113 14.6475 19.2301 14.8511 18.3352 14.2368C17.5249 13.6807 16.9558 12.896 16.3988 12.1084C14.3063 9.15186 12.6368 5.96338 11.2756 2.61279C10.8823 1.64502 10.2039 1.05811 9.17822 1.04199C6.65845 1.00195 4.13806 0.995605 1.61829 1.04443C0.102173 1.07275 -0.349976 1.80908 0.267456 3.18359C3.01196 9.28857 6.06677 15.2236 10.0544 20.6309C12.1018 23.4053 14.4525 25.855 17.4891 27.5913C20.9308 29.5591 24.6355 30.1509 28.5375 29.9688C30.3645 29.8828 30.9133 29.4077 30.9979 27.5869C31.0551 26.3408 31.1963 25.1021 31.8109 23.9824C32.4142 22.8838 33.3276 22.6743 34.3807 23.3579C34.9076 23.7002 35.3514 24.1357 35.7706 24.5947C36.799 25.7197 37.7905 26.8789 38.8579 27.9663C40.1965 29.3286 41.7825 30.1333 43.7766 29.9692C43.7766 29.9692 51.496 29.9707 51.496 29.9707C52.7396 29.8896 53.3845 28.3647 52.6704 26.9766C52.1688 26.0039 51.5107 25.1382 50.812 24.3003C50.812 24.3003 50.812 24.3003 50.812 24.3003Z" fill="#FFFFFF" />
</svg>