<?xml version="1.0" encoding="utf-8"?>
<svg width="41" height="41" viewBox="0 0 41 41" fill="none" xmlns="http://www.w3.org/2000/svg">
  <g id="XMLID_468_">
    <path id="XMLID_469_" d="M19.5701 12.9567C19.4902 12.9183 16.5012 11.4465 15.97 11.2553C15.7532 11.1774 15.5209 11.1014 15.2738 11.1014C14.8702 11.1014 14.5312 11.3026 14.2671 11.6976C13.9685 12.1415 13.0646 13.198 12.7854 13.5136C12.7489 13.5553 12.6991 13.6051 12.6693 13.6051C12.6425 13.6051 12.1799 13.4146 12.0399 13.3538C8.83351 11.961 6.39973 8.6116 6.06601 8.04678C6.01835 7.96558 6.01635 7.92871 6.01596 7.92871C6.02767 7.88571 6.1355 7.77762 6.19114 7.72185C6.35394 7.56077 6.53032 7.34845 6.70098 7.14305C6.78178 7.04574 6.86271 6.9483 6.94218 6.85645C7.18978 6.56839 7.3 6.34475 7.42779 6.0857C7.42779 6.0857 7.49475 5.95112 7.49475 5.95112C7.80678 5.3312 7.54028 4.80805 7.45415 4.63912C7.38347 4.49775 6.12139 1.45177 5.9872 1.13176C5.66453 0.359549 5.23815 0 4.64565 0C4.59067 0 4.64565 0 4.41509 0.00971699C4.13435 0.0215645 2.6055 0.222837 1.92953 0.648945C1.2127 1.10088 0 2.54147 0 5.07495C0 7.35511 1.44698 9.50801 2.06824 10.3268C2.08368 10.3474 2.11203 10.3894 2.15317 10.4495C4.53237 13.9242 7.49835 16.4992 10.5051 17.7003C13.3997 18.8565 14.7704 18.9902 15.5497 18.9902C15.5498 18.9902 15.5498 18.9902 15.5498 18.9902C15.8773 18.9902 16.1394 18.9645 16.3706 18.9417C16.3706 18.9417 16.5173 18.9278 16.5173 18.9278C17.5173 18.8391 19.7148 17.7004 20.2146 16.3113C20.6084 15.2173 20.7122 14.0219 20.4502 13.588C20.2708 13.2931 19.9616 13.1446 19.5701 12.9567C19.5701 12.9567 19.5701 12.9567 19.5701 12.9567Z" fill="#FFFFFF" transform="translate(10.768 10.603)" />
    <path id="XMLID_470_" d="M20.8639 0C9.75984 0 0.725989 8.96595 0.725989 19.9866C0.725989 23.551 1.67991 27.0402 3.48697 30.0939C3.48697 30.0939 0.0281899 40.2966 0.0281899 40.2966C-0.0362387 40.4868 0.0116834 40.6972 0.152388 40.8404C0.253956 40.9441 0.391732 41 0.532437 41C0.586349 41 0.640661 40.9919 0.693642 40.975C0.693642 40.975 11.3324 37.5943 11.3324 37.5943C14.2436 39.1498 17.534 39.9709 20.8641 39.9709C31.9671 39.971 41 31.006 41 19.9866C41 8.96595 31.9671 0 20.8639 0C20.8639 0 20.8639 0 20.8639 0ZM20.8639 35.8077C17.7305 35.8077 14.6956 34.9029 12.0867 33.191C11.999 33.1334 11.8972 33.1039 11.7947 33.1039C11.7405 33.1039 11.6862 33.1121 11.6333 33.1289C11.6333 33.1289 6.30401 34.8229 6.30401 34.8229C6.30401 34.8229 8.02441 29.7473 8.02441 29.7473C8.08006 29.583 8.05224 29.4019 7.94974 29.2618C5.9631 26.5473 4.91294 23.3401 4.91294 19.9866C4.91294 11.2618 12.0685 4.16344 20.8638 4.16344C29.6581 4.16344 36.8128 11.2618 36.8128 19.9866C36.813 28.7105 29.6583 35.8077 20.8639 35.8077C20.8639 35.8077 20.8639 35.8077 20.8639 35.8077Z" fill="#FFFFFF" />
  </g>
</svg>