<?xml version="1.0" encoding="utf-8"?>
<svg width="153" height="102.259" viewBox="0 0 153 102.259" fill="none" xmlns="http://www.w3.org/2000/svg">
  <defs>
    <radialGradient id="gradient_1" gradientUnits="userSpaceOnUse" cx="0" cy="0" r="1" gradientTransform="matrix(47.943 0 0 49.02 58.292 35.405)">
      <stop offset="0" stop-color="#FFFFFF" />
      <stop offset="0.13" stop-color="#F9F9F9" />
      <stop offset="0.3" stop-color="#E9E9E9" />
      <stop offset="0.5" stop-color="#CECECE" />
      <stop offset="0.71" stop-color="#A8A8A8" />
      <stop offset="0.93" stop-color="#787878" />
      <stop offset="0.98" stop-color="#6B6B6B" />
    </radialGradient>
    <radialGradient id="gradient_2" gradientUnits="userSpaceOnUse" cx="0" cy="0" r="1" gradientTransform="matrix(-78.973 -22.71 19.148 -66.588 38.497 22.138)">
      <stop offset="0.49" stop-color="#0995D0" />
      <stop offset="0.61" stop-color="#0993CD" />
      <stop offset="0.68" stop-color="#0B8DC4" />
      <stop offset="0.75" stop-color="#0D83B5" />
      <stop offset="0.81" stop-color="#10759F" />
      <stop offset="0.87" stop-color="#146283" />
      <stop offset="0.92" stop-color="#184B60" />
      <stop offset="0.97" stop-color="#1E3038" />
      <stop offset="1" stop-color="#212121" />
    </radialGradient>
    <radialGradient id="gradient_3" gradientUnits="userSpaceOnUse" cx="0" cy="0" r="1" gradientTransform="matrix(34.929 0 0 35.714 25.637 17.436)">
      <stop offset="0" stop-color="#FFFFFF" />
      <stop offset="0.13" stop-color="#F9F9F9" />
      <stop offset="0.3" stop-color="#E9E9E9" />
      <stop offset="0.5" stop-color="#CECECE" />
      <stop offset="0.71" stop-color="#A8A8A8" />
      <stop offset="0.93" stop-color="#787878" />
      <stop offset="0.98" stop-color="#6B6B6B" />
    </radialGradient>
    <radialGradient id="gradient_4" gradientUnits="userSpaceOnUse" cx="0" cy="0" r="1" gradientTransform="matrix(14.945 0 0 15.28 10.966 7.46)">
      <stop offset="0" stop-color="#FFFFFF" />
      <stop offset="0.13" stop-color="#F9F9F9" />
      <stop offset="0.3" stop-color="#E9E9E9" />
      <stop offset="0.5" stop-color="#CECECE" />
      <stop offset="0.71" stop-color="#A8A8A8" />
      <stop offset="0.93" stop-color="#787878" />
      <stop offset="0.98" stop-color="#6B6B6B" />
    </radialGradient>
    <radialGradient id="gradient_5" gradientUnits="userSpaceOnUse" cx="0" cy="0" r="1" gradientTransform="matrix(14.945 0 0 15.28 10.966 7.46)">
      <stop offset="0" stop-color="#FFFFFF" />
      <stop offset="0.13" stop-color="#F9F9F9" />
      <stop offset="0.3" stop-color="#E9E9E9" />
      <stop offset="0.5" stop-color="#CECECE" />
      <stop offset="0.71" stop-color="#A8A8A8" />
      <stop offset="0.93" stop-color="#787878" />
      <stop offset="0.98" stop-color="#6B6B6B" />
    </radialGradient>
    <radialGradient id="gradient_6" gradientUnits="userSpaceOnUse" cx="0" cy="0" r="1" gradientTransform="matrix(14.945 0 0 15.28 10.966 7.46)">
      <stop offset="0" stop-color="#FFFFFF" />
      <stop offset="0.13" stop-color="#F9F9F9" />
      <stop offset="0.3" stop-color="#E9E9E9" />
      <stop offset="0.5" stop-color="#CECECE" />
      <stop offset="0.71" stop-color="#A8A8A8" />
      <stop offset="0.93" stop-color="#787878" />
      <stop offset="0.98" stop-color="#6B6B6B" />
    </radialGradient>
    <radialGradient id="gradient_7" gradientUnits="userSpaceOnUse" cx="0" cy="0" r="1" gradientTransform="matrix(14.945 0 0 15.28 10.966 7.457)">
      <stop offset="0" stop-color="#FFFFFF" />
      <stop offset="0.13" stop-color="#F9F9F9" />
      <stop offset="0.3" stop-color="#E9E9E9" />
      <stop offset="0.5" stop-color="#CECECE" />
      <stop offset="0.71" stop-color="#A8A8A8" />
      <stop offset="0.93" stop-color="#787878" />
      <stop offset="0.98" stop-color="#6B6B6B" />
    </radialGradient>
    <radialGradient id="gradient_8" gradientUnits="userSpaceOnUse" cx="0" cy="0" r="1" gradientTransform="matrix(14.945 0 0 15.28 10.966 7.46)">
      <stop offset="0" stop-color="#FFFFFF" />
      <stop offset="0.13" stop-color="#F9F9F9" />
      <stop offset="0.3" stop-color="#E9E9E9" />
      <stop offset="0.5" stop-color="#CECECE" />
      <stop offset="0.71" stop-color="#A8A8A8" />
      <stop offset="0.93" stop-color="#787878" />
      <stop offset="0.98" stop-color="#6B6B6B" />
    </radialGradient>
  </defs>
  <g id="Layer_52" transform="translate(0 0.259)">
    <path id="Shape" d="M20.4308 9.50124C22.0898 8.64759 23.1391 6.91326 23.1453 5.01429C23.1453 3.86402 22.6356 0 17.4479 0C17.4479 0 0 0 0 0C0 0 0 19.0919 0 19.0919C0.03619 19.0919 10.7824 19.1813 17.4389 19.0919C23.2328 19.0487 23.4891 15.416 23.4891 13.7137C23.4891 10.67 20.4731 9.50124 20.4308 9.50124C20.4308 9.50124 20.4308 9.50124 20.4308 9.50124ZM5.60382 3.86399C5.74557 3.77148 12.1849 3.86399 15.8584 3.86399C16.9503 3.86399 17.9697 4.56402 17.9697 5.82222C17.9697 7.26237 17.092 7.88529 16.0394 7.88529C11.9979 7.88529 5.74557 7.97164 5.60382 7.88529C5.60382 7.88529 5.60382 3.87633 5.60382 3.87633C5.60382 3.87633 5.60382 3.86399 5.60382 3.86399ZM16.1239 15.2371C11.654 15.2371 5.74557 15.3296 5.60382 15.2371C5.60382 15.2371 5.60382 11.1326 5.60382 11.1326C5.74557 11.037 12.6222 11.0801 16.0454 11.037C16.6335 10.9896 17.2142 11.1959 17.6467 11.606C18.0793 12.0161 18.3244 12.5925 18.3226 13.1956C18.3226 14.6111 17.2247 15.2371 16.1239 15.2371C16.1239 15.2371 16.1239 15.2371 16.1239 15.2371Z" fill="#000000" transform="translate(51.81 82.868)" />
    <path id="Shape" d="M20.4338 11.7432C20.5696 11.7031 23.2418 9.87129 23.2418 6.80906C23.2418 3.22567 21.8393 0 16.6638 0C16.6638 0 0 0 0 0L0 19.0919L5.61591 19.0919C5.61591 19.0919 5.61591 13.171 5.61591 13.171C5.65512 13.171 12.3629 13.2234 15.7016 13.171C17.1493 13.1309 18.3377 14.7129 18.3377 16.042C18.3377 16.042 18.3377 19.0919 18.3377 19.0919L23.3383 19.0919C23.3383 19.0919 23.3383 16.1407 23.3383 16.1407C23.3383 13.3468 20.4731 11.7432 20.4338 11.7432C20.4338 11.7432 20.4338 11.7432 20.4338 11.7432ZM15.8766 9.67705C11.8411 9.67705 5.70037 9.72948 5.62195 9.67705C5.62195 9.67705 5.62195 3.85789 5.62195 3.85789C5.75768 3.76538 12.206 3.85789 15.8766 3.85789C17.279 3.85789 18.1567 5.54474 18.1567 6.89236C18.1567 8.23999 17.2217 9.66779 15.8766 9.66779C15.8766 9.66779 15.8766 9.67705 15.8766 9.67705Z" fill="#000000" transform="translate(103.71 82.874)" />
    <path id="Shape" d="M10.0887 0L0 19.0981L5.6129 19.0981L7.72415 15.2433L19.4717 15.2433L21.4955 19.0981L27.0179 19.0981L16.9322 0L10.0887 0ZM9.73584 11.1387L13.4154 4.22791L17.27 11.1387L9.73584 11.1387Z" fill="#000000" transform="translate(75.13 82.862)" />
    <path id="Path" d="M18.3806 0.0986786C18.4772 0.240524 18.3806 8.44348 18.3053 13.7291C18.3053 14.4538 18.0429 15.342 16.9902 15.342C16.9902 15.342 7.25742 15.342 7.25742 15.342C6.10829 15.342 5.68604 14.6635 5.68604 13.8186C5.68604 7.90073 5.45381 0.18811 5.58952 0C5.58952 0 0.0610657 0 0.0610657 0C-0.0203552 0.141853 -0.0203552 9.25145 0.0610657 15.2495C0.106308 18.2007 3.14047 19.1968 6.55768 19.1968C11.3834 19.1968 14.0074 19.2862 19.3699 19.1968C22.1718 19.1474 24.0569 17.6364 24.0056 15.2495C23.9664 9.97306 23.9212 0.0986862 23.9212 0.0986862C23.9212 0.0986862 18.3806 0.0986786 18.3806 0.0986786Z" fill="#000000" fill-rule="evenodd" transform="translate(128.993 82.763)" />
    <path id="Path" d="M19.9784 7.97167C15.5026 7.74347 10.0616 7.79589 6.73187 7.60778C4.89207 7.51835 4.89207 3.93495 6.9068 3.93495C6.9068 3.93495 17.1795 3.93495 17.1795 3.93495C18.576 3.93495 18.576 5.49845 18.576 5.55087C18.576 5.55087 23.661 5.55087 23.661 5.55087C23.5736 5.32575 24.1889 0 19.2757 0C19.2757 0 4.45172 0 4.45172 0C2.00268 0 0.229231 1.52341 0.229231 3.3922C0.229231 3.3922 0.229231 7.42583 0.229231 7.42583C0.229231 10.0409 2.50938 11.2899 5.65815 11.3855C10.3029 11.5026 13.1108 11.6476 16.7995 11.8326C19.8699 12.0053 19.4295 15.9002 16.7995 15.9526C13.2918 16.0451 11.1021 15.9526 7.24762 15.9526C5.05494 15.9526 5.13637 13.7076 5.13637 13.7076C5.13637 13.7076 0.0723959 13.7076 0.0723959 13.7076C-0.024132 14.3028 -0.024132 14.9102 0.0723959 15.5054C0.406399 17.9693 2.46528 19.8048 4.8981 19.8074C4.8981 19.8074 19.5381 19.8074 19.5381 19.8074C21.767 19.8074 24.0622 18.5522 24.0079 15.8601C24.0079 15.8601 23.9174 11.919 23.9174 11.8326C23.9265 9.50124 22.0806 8.10427 19.9784 7.97167C19.9784 7.97167 19.9784 7.97167 19.9784 7.97167Z" fill="#000000" fill-rule="evenodd" transform="translate(0 82.159)" />
    <path id="Path" d="M18.3543 0.0986786C18.4478 0.240524 18.4478 8.44348 18.3543 13.7291C18.3543 14.4538 18.0889 15.342 17.0484 15.342C17.0484 15.342 7.22506 15.342 7.22506 15.342C6.17245 15.342 5.64162 14.6635 5.64162 13.8186C5.64162 7.90073 5.55717 0.151108 5.64162 0C5.64162 0 0.0287228 0 0.0287228 0C-0.055727 0.141853 0.0679302 9.25145 0.119205 15.2495C0.164446 18.1668 3.10813 19.1968 6.52231 19.1968C11.4234 19.1968 14.0625 19.2862 19.3285 19.1968C22.1304 19.1474 24.0999 17.6364 24.0607 15.2495C24.0095 9.97306 23.9733 0.0986862 23.9733 0.0986862C23.9733 0.0986862 18.3543 0.0986786 18.3543 0.0986786Z" fill="#000000" fill-rule="evenodd" transform="translate(25.729 82.763)" />
    <path id="Shape" d="M98.5077 10.5251C87.9847 4.18166 73.6584 0 58.1497 0C42.7256 0 28.4898 4.20324 17.9848 10.5405C6.95505 17.2324 0 26.3142 0 35.5502C0 44.7863 6.93695 53.7448 17.9094 60.3534C28.4294 66.6567 42.7135 70.8137 58.1226 70.8137C73.7006 70.8137 88.0148 66.7091 98.562 60.3935C109.622 53.7633 116.583 44.7801 116.583 35.5502C116.583 26.3204 109.583 17.2139 98.5077 10.5251C98.5077 10.5251 98.5077 10.5251 98.5077 10.5251ZM97.7235 58.8762C87.4056 65.0253 73.3839 69.0744 58.1497 69.0744C43.0031 69.0744 29.0538 65.0253 18.7931 58.8762C8.29418 52.5698 1.70709 44.1232 1.70709 35.5502C1.70709 26.9772 8.34244 18.4134 18.8474 12.0484C29.102 5.83763 43.0423 1.71765 58.1497 1.71765C73.3447 1.71765 87.3513 5.79446 97.6421 12.0361C108.198 18.4011 114.873 26.9649 114.873 35.5502C114.873 44.1356 108.247 52.5821 97.7235 58.8762C97.7235 58.8762 97.7235 58.8762 97.7235 58.8762Z" fill="url(#gradient_1)" stroke-width="0.518" stroke="#000000" transform="translate(16.661 0)" />
    <path id="Path" d="M113.166 33.8326C113.166 42.4056 106.53 50.8645 96.0165 57.1586C85.6985 63.3077 71.6768 67.3567 56.4427 67.3567C41.296 67.3567 27.3467 63.3077 17.086 57.1586C6.58709 50.8521 0 42.4056 0 33.8326C0 25.2595 6.63535 16.6958 17.1403 10.3308C27.3949 4.11998 41.3352 0 56.4427 0C71.6376 0 85.6442 4.07681 95.935 10.3184C106.5 16.6835 113.166 25.2472 113.166 33.8326C113.166 33.8326 113.166 33.8326 113.166 33.8326Z" fill="url(#gradient_2)" fill-rule="evenodd" transform="translate(18.368 1.718)" />
    <path id="Path" d="M29.3463 0L23.9415 13.9851L0 19.2461L23.9415 24.4578L29.6298 39.3433L35.3332 24.7754L61.2744 19.2461L35.0437 13.4239L29.3463 0L29.3463 0Z" fill="url(#gradient_3)" fill-rule="evenodd" transform="translate(24.074 9.323)" />
    <path id="Path" d="M12.5559 0L10.2426 5.9826L0 8.23379L10.2426 10.4634L12.6765 16.8315L15.1165 10.5991L26.2126 8.23379L14.9929 5.74207L12.5559 0L12.5559 0Z" fill="url(#gradient_4)" fill-rule="evenodd" transform="translate(92.771 13.442)" />
    <path id="Path" d="M12.5529 0L10.2426 5.98261L0 8.2338L10.2426 10.4634L12.6735 16.8315L15.1135 10.5991L26.2126 8.2338L14.9898 5.74207L12.5529 0L12.5529 0Z" fill="url(#gradient_5)" fill-rule="evenodd" transform="translate(72.802 30.632)" />
    <path id="Path" d="M12.5559 0L10.2426 5.98261L0 8.2338L10.2426 10.4634L12.6765 16.8315L15.1165 10.5991L26.2126 8.2338L14.9929 5.74207L12.5559 0L12.5559 0Z" fill="url(#gradient_6)" fill-rule="evenodd" transform="translate(100.155 30.632)" />
    <path id="Path" d="M12.5559 0L10.2426 5.98261L0 8.23379L10.2426 10.4634L12.6765 16.8315L15.1165 10.5991L26.2126 8.23379L14.9929 5.74207L12.5559 0L12.5559 0Z" fill="url(#gradient_7)" fill-rule="evenodd" transform="translate(82.517 44.462)" />
    <path id="Path" d="M12.5529 0L10.2426 5.98261L0 8.23379L10.2426 10.4634L12.6735 16.8315L15.1135 10.5991L26.2126 8.23379L14.9899 5.74207L12.5529 0L12.5529 0Z" fill="url(#gradient_8)" fill-rule="evenodd" transform="translate(52.857 46.359)" />
  </g>
</svg>