<?xml version="1.0" encoding="utf-8"?>
<svg width="148.65" height="173.83" viewBox="0 0 148.65 173.83" fill="none" xmlns="http://www.w3.org/2000/svg">
  <defs>
    <linearGradient id="gradient_1" gradientUnits="userSpaceOnUse" x1="-0" y1="76.334" x2="147.413" y2="76.334">
      <stop offset="0" stop-color="#FFFFFF" />
      <stop offset="0.22" stop-color="#000000" />
      <stop offset="0.38" stop-color="#C1C0C0" />
      <stop offset="0.72" stop-color="#212121" />
      <stop offset="0.98" stop-color="#D9DEE2" />
    </linearGradient>
  </defs>
  <g id="Short_Light" transform="translate(0.605 0)">
    <g id="Layer_8">
      <path id="Path" d="M56.8145 0.0680695L50.7273 7.35927C50.7273 7.35927 44.64 0.0680695 44.64 0.0680695C35.1202 -0.246437 13.2432 0.375816 0 5.41811C1.81942 8.64774 9.80727 13.2842 14.1698 14.2954C14.4133 7.91727 24.0616 6.59498 33.3616 6.59498C33.3616 6.59498 50.734 93.6261 50.734 93.6261C50.734 93.6261 68.12 6.59498 68.12 6.59498C77.4098 6.59498 87.0581 7.91727 87.3118 14.2954C91.6879 13.2808 99.6385 8.64774 101.488 5.41811C88.2147 0.365669 66.3344 -0.246437 56.8145 0.0680695C56.8145 0.0680695 56.8145 0.0680695 56.8145 0.0680695Z" fill="#ED0714" fill-rule="evenodd" transform="translate(22.682 61.567)" />
      <path id="Path" d="M140.2 25.0627C138.905 32.6582 137.457 40.3823 135.205 48.3972C131.848 60.5512 127.491 72.4065 122.178 83.842C116.182 96.7673 107.051 110.704 97.393 121.299C87.7345 131.894 77.4944 140.288 73.1149 141.928C68.7186 140.271 59.0533 131.911 49.4185 121.299C39.7837 110.687 30.6562 96.5509 24.6534 83.6256C19.3744 72.239 15.4143 61.1467 11.8262 48.3431C9.67589 40.8046 7.93063 33.1564 6.59793 25.4313C5.12346 16.9023 4.36931 9.84108 3.32433 0.104828C3.32433 0.104828 0 3.14846 0 3.14846C0.0507278 11.0518 1.41022 18.2821 2.70545 26.0366C3.99055 33.8655 5.61382 41.9312 7.62938 49.4591C10.3348 59.6857 14.1698 72.6888 20.0948 85.8306C26.456 99.9801 34.2984 113.697 43.7404 125.53C52.4892 136.48 62.638 145.804 73.1284 152.645C83.6391 145.804 93.7575 136.48 102.516 125.53C111.948 113.693 119.798 99.9801 126.189 85.8306C132.121 72.6888 135.929 59.6857 138.661 49.4591C140.67 41.921 142.3 33.8655 143.572 26.0366C144.88 18.2821 146.74 10.4803 147.441 2.95909C147.441 2.95909 143.254 0 143.254 0C142.696 9.53674 141.651 16.5337 140.2 25.0627C140.2 25.0627 140.2 25.0627 140.2 25.0627Z" fill="url(#gradient_1)" fill-rule="evenodd" stroke-width="1.21" stroke="#4B4C4C" transform="translate(0 20.58)" />
      <path id="Path" d="M3.37167 11.5684C16.2598 7.34785 31.5388 5.33567 47.6735 4.86898C53.7608 4.67621 59.9867 4.67621 66.0976 4.86898C82.2086 5.33567 97.5046 7.34785 110.399 11.5684C110.399 11.5684 113.798 6.91159 113.798 6.91159C98.58 2.10603 82.442 0.519958 66.2938 0.11414C60.0476 -0.038044 53.7439 -0.038044 47.5044 0.11414C31.3495 0.519955 15.2013 2.10603 0 6.91159C0 6.91159 3.37167 11.5684 3.37167 11.5684Z" fill="#F90629" fill-rule="evenodd" transform="translate(16.537 51.406)" />
      <path id="Shape" d="M19.8276 101.449C23.5036 109.228 27.3724 116.708 32.0224 123.749C42.6244 139.863 55.2386 153.695 70.2843 163.316C85.347 153.695 97.9476 139.863 108.567 123.749C113.193 116.708 117.082 109.207 120.741 101.449C131.938 77.7327 138.702 47.4721 140.559 20.6746C134.285 16.0483 127.42 12.6394 120.379 9.80883C113.754 7.11793 106.925 4.95913 99.9563 3.3529C73.3316 -2.74529 45.4743 -0.487404 20.1793 9.81898C13.1654 12.6496 6.28342 16.0584 0 20.6746C1.86338 47.4721 8.62364 77.7327 19.8276 101.449C19.8276 101.449 19.8276 101.449 19.8276 101.449ZM20.6257 10.7727C26.8855 8.24306 33.8486 5.86564 40.8828 4.32353C60.2613 0.0827602 80.3277 0.0827602 99.7062 4.32353C106.723 5.86564 113.71 8.24306 119.956 10.7727C128.11 14.0801 135.073 17.7866 139.52 21.165C138.438 42.3555 132.757 72.758 119.534 101.263C116.037 108.871 112.028 116.234 107.535 123.299C96.3074 140.959 81.5221 155.028 70.2843 162.227C59.0567 155.028 44.2646 140.959 33.0302 123.299C28.5468 116.225 24.5328 108.864 21.0144 101.263C7.84244 72.7546 2.15084 42.3555 1.0619 21.165C5.51575 17.7866 12.4519 14.0801 20.6257 10.7727C20.6257 10.7727 20.6257 10.7727 20.6257 10.7727Z" fill="#000000" transform="translate(3.132 0)" />
      <path id="Path" d="M0 9.57055L3.04702 9.57055L3.04702 3.20934L14.1495 3.20934L14.1495 9.57055L17.1999 9.57055L17.1999 0.023674L0 0L0 9.57055L0 9.57055Z" fill="#ED0714" fill-rule="evenodd" transform="translate(116.869 33.38)" />
      <path id="Path" d="M3.18567 12.6007C1.58269 13.2331 0.392296 14.2916 0.0541077 15.668C0.0541077 15.668 0 15.8032 0 15.8032L17.2135 15.8032L17.2135 6.21916L3.05716 6.21916L3.05716 3.11127C3.05716 3.11127 13.9534 3.11127 13.9534 3.11127C15.6003 2.63105 16.8042 1.42036 17.1323 0C17.1323 0 0 0 0 0L0 9.35073L14.1597 9.35073L14.1597 12.6007C14.1597 12.6007 3.18567 12.6007 3.18567 12.6007Z" fill="#ED0714" fill-rule="evenodd" transform="translate(65.228 27.218)" />
      <path id="Path" d="M16.6487 12.5601L3.02335 12.5601L3.04364 0L0 0L0 15.6341C0 15.6341 13.9838 15.668 13.9838 15.668C15.3347 15.141 16.334 13.9755 16.6487 12.5601C16.6487 12.5601 16.6487 12.5601 16.6487 12.5601Z" fill="#ED0714" fill-rule="evenodd" transform="translate(91.245 27.218)" />
      <path id="Path" d="M3.24654 3.12818C3.24654 3.12818 15.0457 3.12818 15.0457 3.12818C16.7096 2.49916 17.8763 1.41022 18.2179 0C18.2179 0 0 0 0 0C0.324654 1.41022 1.5996 2.49916 3.24654 3.12818C3.24654 3.12818 3.24654 3.12818 3.24654 3.12818Z" fill="#ED0714" fill-rule="evenodd" transform="translate(116.267 27.235)" />
      <path id="Path" d="M3.20258 3.17214C3.20258 3.17214 15.022 3.17214 15.022 3.17214C16.6859 2.54313 17.8932 1.41698 18.2179 0C18.2179 0 0 0 0 0C0.328037 1.41698 1.56916 2.55665 3.20258 3.17214C3.20258 3.17214 3.20258 3.17214 3.20258 3.17214Z" fill="#ED0714" fill-rule="evenodd" transform="translate(38.133 27.249)" />
      <path id="Path" d="M3.20258 3.18229C3.20258 3.18229 15.022 3.18229 15.022 3.18229C16.6859 2.56004 17.8932 1.38316 18.2179 0C18.2179 0 0 0 0 0C0.328037 1.38993 1.56916 2.5668 3.20258 3.18229C3.20258 3.18229 3.20258 3.18229 3.20258 3.18229Z" fill="#ED0714" fill-rule="evenodd" transform="translate(38.133 39.812)" />
      <path id="Path" d="M3.20934 3.20597L8.17385 3.20597L8.43087 3.29727L8.43087 15.8404L11.532 15.8404L11.532 3.30066L11.8127 3.20935C11.8127 3.20935 16.784 3.20935 16.784 3.20935C18.4174 2.57018 19.6281 1.45418 19.9798 0.0405827C19.9798 0.0405827 19.9798 0 19.9798 0L0 0C0 0 0 0.0405827 0 0.0405827C0.365237 1.4508 1.56916 2.5668 3.20934 3.20597C3.20934 3.20597 3.20934 3.20597 3.20934 3.20597Z" fill="#ED0714" fill-rule="evenodd" transform="translate(10.619 27.181)" />
      <path id="Path" d="M3.20258 3.16877C3.20258 3.16877 15.022 3.16877 15.022 3.16877C16.6859 2.5668 17.8932 1.3764 18.2179 0C18.2179 0 0 0 0 0C0.328037 1.3764 1.56916 2.5668 3.20258 3.16877C3.20258 3.16877 3.20258 3.16877 3.20258 3.16877Z" fill="#ED0714" fill-rule="evenodd" transform="translate(38.133 33.4)" />
    </g>
  </g>
</svg>