<?xml version="1.0" encoding="utf-8"?>
<svg width="125.768" height="102" viewBox="0 0 125.768 102" fill="none" xmlns="http://www.w3.org/2000/svg">
  <defs>
    <linearGradient id="gradient_1" gradientUnits="userSpaceOnUse" x1="39.642" y1="-3.241" x2="73.076" y2="73.454">
      <stop offset="0" stop-color="#FFFFFF" />
      <stop offset="0.13" stop-color="#DDDDDD" />
      <stop offset="0.33" stop-color="#B3B3B3" />
      <stop offset="0.51" stop-color="#939393" />
      <stop offset="0.69" stop-color="#7B7B7B" />
      <stop offset="0.86" stop-color="#6D6D6D" />
      <stop offset="1" stop-color="#686868" />
    </linearGradient>
    <radialGradient id="gradient_2" gradientUnits="userSpaceOnUse" cx="0" cy="0" r="1" gradientTransform="matrix(46.571 0 0 46.571 56.114 34.473)">
      <stop offset="0" stop-color="#FFFFFF" />
      <stop offset="0.13" stop-color="#F9F9F9" />
      <stop offset="0.3" stop-color="#E9E9E9" />
      <stop offset="0.5" stop-color="#CECECE" />
      <stop offset="0.71" stop-color="#A8A8A8" />
      <stop offset="0.93" stop-color="#787878" />
      <stop offset="0.98" stop-color="#6B6B6B" />
    </radialGradient>
  </defs>
  <g id="Temperature">
    <path id="Shape" d="M22.391 11.1889C22.2687 4.99889 17.2725 0.00537872 11.2022 5.34058e-05C8.23067 -0.00915527 5.37803 1.16629 3.27561 3.26623C1.17318 5.36615 -0.00564575 8.21739 2.67029e-05 11.1889C-0.0132637 17.3045 4.9696 22.3033 11.2022 22.3831C17.2725 22.3033 22.2687 17.3018 22.391 11.1889C22.391 11.1889 22.391 11.1889 22.391 11.1889ZM5.01484 11.1889C4.90316 7.25631 7.69506 4.09748 11.2022 4.11876C14.5578 4.09749 17.3391 7.25631 17.3763 11.1889C17.3391 15.0417 14.5578 18.2112 11.2022 18.2644C7.69506 18.2112 4.90316 15.0417 5.01484 11.1889C5.01484 11.1889 5.01484 11.1889 5.01484 11.1889Z" fill="#CB0D15" transform="translate(62.74 79.617)" />
    <path id="Path" d="M11.4813 3.81824L17.9612 3.81824L17.9612 0L0 0L0 3.81824L6.77766 3.81824L6.77766 20.8993L11.4813 20.8993L11.4813 3.81824L11.4813 3.81824Z" fill="#CB0D15" fill-rule="evenodd" transform="translate(86.307 80.508)" />
    <path id="Shape" d="M7.3573 16.1691L15.9085 16.1691L17.6793 20.886L23.2631 20.886L14.7199 0L8.841 0L0 20.8993L5.60506 20.8993L7.3573 16.1691ZM11.7872 4.98291L14.712 12.6407L8.83838 12.6407L11.7872 4.98291Z" fill="#CB0D15" transform="translate(102.505 80.521)" />
    <path id="Path" d="M6.48517 20.8993L11.1968 20.8993L11.1968 3.81824L17.682 3.81824L17.682 0L0 0L0 3.81824L6.48517 3.81824L6.48517 20.8993L6.48517 20.8993Z" fill="#CB0D15" fill-rule="evenodd" transform="translate(0 80.508)" />
    <path id="Shape" d="M22.3928 11.1889C22.3077 4.99883 17.3062 0.00532532 11.196 0C7.19642 -0.00160217 3.50001 2.1313 1.49991 5.59484C-0.5002 9.05837 -0.499954 13.326 1.50056 16.7893C3.50106 20.2526 7.19771 22.3851 11.1973 22.383C17.3343 22.2745 22.2835 17.3259 22.3928 11.1889C22.3928 11.1889 22.3928 11.1889 22.3928 11.1889ZM5.02194 11.1889C4.94217 7.25631 7.72343 4.09748 11.1987 4.11876C14.6048 4.09749 17.3807 7.25631 17.3834 11.1889C17.3834 15.0417 14.6048 18.2112 11.1987 18.2644C7.72343 18.2112 4.94217 15.0417 5.02194 11.1889C5.02194 11.1889 5.02194 11.1889 5.02194 11.1889Z" fill="#CB0D15" transform="translate(18.847 79.617)" />
    <path id="Path" d="M10.6039 20.8993L12.9597 20.8993L12.9597 12.9464L21.2078 0L15.9058 0L10.6039 8.8277L5.59443 0L0 0L8.25071 12.9464L8.25071 20.8993L10.6039 20.8993L10.6039 20.8993Z" fill="#CB0D15" fill-rule="evenodd" transform="translate(41.24 80.508)" />
    <path id="Shape" d="M110.982 27.5282C109.764 23.8536 107.629 20.5379 105.034 17.6901C102.074 14.4382 98.522 11.75 94.7383 9.53248C90.3942 7.02201 85.7718 5.02757 80.9649 3.58973C75.6278 1.97582 70.141 0.906776 64.5884 0.398973C61.7522 0.133078 58.908 0.000130631 56.0559 0.000130631C50.2449 -0.00985016 44.447 0.552117 38.7461 1.67793C33.552 2.69308 28.4817 4.26195 23.622 6.35768C19.3026 8.20239 15.244 10.6062 11.5504 13.5076C8.35964 16.0575 5.50127 19.0781 3.4007 22.5932C1.45898 25.7736 0.304893 29.3717 0.0344763 33.0881C-0.171361 36.7842 0.546915 40.4734 2.12441 43.8223C3.78625 47.4092 6.283 50.56 9.15998 53.2482C12.4757 56.3486 16.3099 58.8666 20.3488 60.9193C24.9545 63.2284 29.8034 65.0165 34.8055 66.2505C40.3272 67.6292 45.9726 68.454 51.6579 68.7127C57.5507 68.9957 63.457 68.7 69.2921 67.8299C74.6662 67.0521 79.9445 65.7154 85.041 63.8415C89.5983 62.1817 93.9325 59.9641 97.9449 57.2393C101.402 54.8463 104.592 52.0012 107.097 48.6163C109.338 45.5905 111.019 42.1259 111.724 38.414C112.404 34.7812 112.149 31.035 110.982 27.5282C110.982 27.5282 110.982 27.5282 110.982 27.5282ZM61.5254 4.79162C65.7994 5.01359 70.0445 5.62232 74.2086 6.61035C77.2345 7.35751 80.3082 8.34664 82.9619 10.0191C84.9215 11.2529 86.9875 13.154 86.8227 15.688C86.6232 18.7298 83.5043 20.6709 81.0474 21.8461C77.5509 23.5213 73.7247 24.3987 69.9277 25.0634C69.9277 25.0634 69.2709 25.1778 69.2709 25.1778C68.6674 21.4792 67.8351 17.8231 66.3833 14.3532C65.1522 11.4071 63.4771 8.44503 60.9617 6.40827C60.2226 5.81001 59.4781 5.21706 58.7362 4.62146C58.7362 4.62146 61.5254 4.79162 61.5254 4.79162ZM57.3775 13.0503C59.0766 13.5821 60.3183 15.0365 61.2064 16.5069C62.7113 19.0223 63.4957 21.9578 64.0089 24.8188C64.0621 25.1432 64.1179 25.4649 64.1737 25.7867C59.609 26.1433 55.0258 26.2011 50.4535 25.9595C49.6186 25.9116 48.789 25.8478 47.9568 25.7867C48.3636 23.4654 48.8502 21.1601 49.7276 18.9638C50.4695 17.1025 51.4932 15.1854 53.1018 13.9331C54.3064 12.9812 55.8645 12.5717 57.3642 13.0397C57.3642 13.0397 57.3775 13.0503 57.3775 13.0503ZM25.5604 13.9357C26.0098 12.6647 26.9803 11.6384 28.0253 10.8194C29.48 9.73628 31.0806 8.86437 32.7795 8.22958C37.5868 6.31514 42.8197 5.46428 47.9355 4.9963C49.7462 4.82879 51.5649 4.73041 53.381 4.62671C53.381 4.62671 51.2538 6.32312 51.2538 6.32312C50.2288 7.15599 49.3201 8.12273 48.5523 9.19744C46.372 12.2021 45.008 15.7757 44.0534 19.3387C43.5376 21.2611 43.1866 23.2101 42.8436 25.1671C39.6529 24.6007 36.4754 23.9546 33.4229 22.8245C31.0299 21.9391 28.5039 20.7718 26.7756 18.8361C25.5498 17.5066 24.8877 15.6932 25.5471 13.925C25.5471 13.925 25.5604 13.9357 25.5604 13.9357ZM50.1291 64.336C46.9971 64.1055 43.8826 63.6784 40.8041 63.057C37.9312 62.477 35.0994 61.7087 32.3273 60.757C29.7391 59.8689 27.2196 58.7917 24.7892 57.5344C22.562 56.3868 20.436 55.0526 18.4342 53.5459C16.5951 52.1624 14.9022 50.5943 13.3823 48.8662C11.9832 47.2773 10.7889 45.5194 9.82726 43.6334C8.93146 41.8577 8.3042 39.9589 7.966 37.9991C7.58004 35.687 7.63145 33.3231 8.11756 31.03C8.72842 28.2759 9.87786 25.6698 11.4998 23.3616C13.1593 21.0196 15.134 18.9179 17.368 17.1157C17.368 17.1157 18.1365 16.4802 18.1365 16.4802C18.2641 17.0785 18.3758 17.6847 18.5327 18.275C18.7436 19.0395 19.0585 19.7713 19.4686 20.45C20.4311 22.0667 21.8191 23.4041 23.3108 24.5342C27.4375 27.6584 32.5294 29.4718 37.5096 30.695C38.8949 31.0353 40.2935 31.2879 41.6868 31.5777C41.8117 31.6043 42.1175 31.607 42.2186 31.6894C42.2717 31.732 42.2398 31.7027 42.2558 31.7904C42.2775 32.1121 42.2712 32.4351 42.2372 32.7556C42.1973 34.944 42.2079 37.127 42.3489 39.3126C42.6998 44.7714 43.6464 50.326 45.7922 55.386C46.6012 57.3747 47.6841 59.2407 49.0095 60.9299C49.9933 62.1476 51.1925 63.1208 52.3757 64.1339C52.3757 64.1339 52.8517 64.5407 52.8517 64.5407C52.8517 64.5407 50.1291 64.336 50.1291 64.336ZM54.0697 54.1575C53.0186 53.5819 52.1219 52.7609 51.456 51.7645C50.5684 50.4756 49.86 49.0722 49.3501 47.5926C47.9276 43.6786 47.3798 39.4456 47.2495 35.3003C47.2283 34.7047 47.2203 34.1064 47.2203 33.5108C47.2203 33.5108 47.1937 32.6015 47.1964 32.3595C52.1106 32.7924 57.0499 32.8652 61.9748 32.5775C62.9081 32.5164 63.8361 32.4366 64.7694 32.3595C64.8066 36.2309 64.5673 40.1077 63.7058 43.894C63.3298 45.6678 62.7794 47.4002 62.0625 49.0657C61.5044 50.3909 60.7388 51.6187 59.7944 52.7031C59.0736 53.5492 58.1248 54.1704 57.061 54.4926C56.0509 54.7475 54.9823 54.6246 54.0564 54.1469C54.0564 54.1469 54.0697 54.1575 54.0697 54.1575ZM104.345 36.5686C104.161 38.5381 103.677 40.4678 102.909 42.2907C102.095 44.2043 101.032 46.0021 99.7477 47.6379C98.3565 49.4106 96.7786 51.0285 95.0414 52.4638C93.1508 54.0262 91.1267 55.4195 88.9923 56.6277C86.6574 57.9517 84.2255 59.0965 81.7174 60.0525C79.0256 61.0814 76.2673 61.9271 73.4614 62.5838C70.4481 63.2909 67.3931 63.8069 64.3147 64.1286C63.5409 64.2084 62.7619 64.2802 61.9855 64.336C61.9855 64.336 59.2866 64.5381 59.2866 64.5381C60.2864 63.6846 61.3446 62.863 62.2593 61.9137C63.6546 60.4121 64.8073 58.7023 65.6761 56.8458C68.0133 52.0597 69.1035 46.7019 69.6113 41.4398C69.8585 38.9511 69.9598 36.4501 69.9144 33.9495C69.9144 33.9495 69.8905 32.7238 69.8905 32.7238C69.8542 32.4078 69.8471 32.0891 69.8692 31.7719C69.8852 31.6868 69.8533 31.716 69.9065 31.6735C70.0128 31.5884 70.3478 31.5911 70.4835 31.5645C71.1296 31.4448 71.7784 31.3252 72.4218 31.1896C77.6732 30.0967 83.0044 28.4056 87.522 25.4409C89.2136 24.3803 90.7132 23.0408 91.9571 21.4791C92.4636 20.8249 92.8869 20.1104 93.2175 19.3519C93.4754 18.7053 93.6722 18.0358 93.8051 17.3524C93.8689 17.0626 93.9327 16.7727 93.9992 16.4829C95.8844 18.0783 97.7217 19.6736 99.2905 21.5987C101.149 23.8146 102.575 26.3599 103.494 29.1023C104.274 31.5092 104.563 34.048 104.345 36.5686C104.345 36.5686 104.345 36.5686 104.345 36.5686Z" fill="url(#gradient_1)" transform="translate(5.581 0.08)" />
    <path id="Shape" d="M56.1405 68.9493C54.6692 68.9493 53.1961 68.9138 51.7213 68.8429C46.0306 68.5844 40.3798 67.7587 34.853 66.3781C29.8473 65.1422 24.9949 63.3523 20.3857 61.0416C16.3091 59.0186 12.5365 56.4337 9.17819 53.3625C6.05393 50.4377 3.68215 47.2629 2.12933 43.9153C0.549373 40.5548 -0.170626 36.8543 0.0340738 33.1465C0.310807 29.4199 1.47009 25.8126 3.41619 22.6225C5.37052 19.3573 8.11721 16.2942 11.5845 13.5182C15.2825 10.6142 19.3455 8.2077 23.6694 6.36035C28.5335 4.26361 33.6083 2.69385 38.8068 1.67794C44.5122 0.551888 50.3145 -0.0100872 56.1299 0.000137023C58.9883 0.000137023 61.8626 0.133084 64.6678 0.39632C70.2257 0.903537 75.7179 1.97257 81.0602 3.58705C85.867 5.02616 90.49 7.01959 94.8361 9.52713C98.9283 11.9202 102.398 14.6749 105.148 17.6981C107.958 20.7878 109.963 24.1088 111.112 27.5654C112.285 31.0819 112.543 34.8392 111.861 38.4831C111.191 42.0274 109.63 45.4708 107.224 48.7147C104.892 51.8549 101.808 54.7612 98.0561 57.3536C94.0389 60.0803 89.7003 62.3005 85.139 63.9638C80.0376 65.84 74.7552 67.1811 69.3767 67.9655C64.9949 68.6193 60.5707 68.9481 56.1404 68.9493C56.1404 68.9493 56.1405 68.9493 56.1405 68.9493ZM56.1218 0.133059C50.3145 0.123281 44.5203 0.684356 38.8228 1.80819C33.6343 2.82262 28.5694 4.38969 23.7146 6.4826C19.4014 8.32536 15.3483 10.7256 11.6589 13.6219C8.20226 16.3872 5.46621 19.4397 3.52252 22.6916C1.59056 25.864 0.440411 29.4502 0.166924 33.1545C-0.0365081 36.8402 0.678901 40.5187 2.24887 43.8594C3.79372 47.1911 6.15752 50.3552 9.27115 53.2641C12.3848 56.173 16.1126 58.7177 20.4334 60.9246C25.036 63.2268 29.8802 65.0104 34.8769 66.2425C40.3944 67.6188 46.0352 68.4427 51.716 68.702C57.6105 68.9932 63.5194 68.7064 69.358 67.8458C74.7271 67.0641 80.0005 65.7275 85.0937 63.8574C89.6446 62.1978 93.9732 59.983 97.9816 57.2632C101.72 54.6787 104.794 51.7831 107.115 48.6535C109.508 45.4256 111.064 42.0062 111.731 38.4777C112.409 34.8562 112.153 31.1216 110.987 27.6266C109.843 24.1859 107.846 20.8835 105.049 17.8071C102.308 14.7945 98.8511 12.0531 94.7696 9.66006C90.4296 7.15471 85.8128 5.16305 81.0122 3.72528C75.6787 2.11205 70.1954 1.04302 64.6465 0.534555C61.8439 0.266003 58.9881 0.133055 56.1218 0.133055C56.1218 0.133055 56.1218 0.133059 56.1218 0.133059ZM59.1531 64.6897C59.1531 64.6897 59.3073 64.5568 59.3073 64.5568C59.5732 64.3414 59.8178 64.126 60.0757 63.9133C60.8444 63.2946 61.5793 62.6351 62.2773 61.9377C63.6711 60.4431 64.8206 58.7382 65.6835 56.8857C67.7309 52.7032 69.0151 47.6725 69.6107 41.5037C69.8567 39.0167 69.958 36.5175 69.9138 34.0187C69.9138 34.0187 69.8899 32.793 69.8899 32.793C69.8899 32.6973 69.8899 32.5962 69.8713 32.4925C69.8434 32.2727 69.8434 32.0503 69.8713 31.8305C69.8722 31.8163 69.8722 31.8021 69.8713 31.7879C69.8686 31.7497 69.8883 31.7134 69.9218 31.6948C70.0629 31.6214 70.2201 31.5839 70.3792 31.5858C70.3792 31.5858 70.5334 31.5699 70.5334 31.5699C70.5334 31.5699 70.7674 31.5247 70.7674 31.5247C71.3257 31.421 71.9054 31.312 72.4717 31.195C78.7096 29.8974 83.6393 28.0042 87.548 25.4543C89.4491 24.2072 90.8956 22.9177 91.9671 21.5084C92.4705 20.8536 92.8911 20.1391 93.2195 19.3813C93.4769 18.7394 93.672 18.0743 93.8018 17.395C93.8018 17.395 94.0198 16.4192 94.0198 16.4192C94.0198 16.4192 94.1049 16.4883 94.1049 16.4883C95.812 17.9242 97.769 19.6232 99.4042 21.6121C101.271 23.8334 102.702 26.3873 103.621 29.1396C104.404 31.5606 104.695 34.1135 104.477 36.6485C104.294 38.6246 103.808 40.5608 103.036 42.3891C102.219 44.3079 101.154 46.111 99.8669 47.7522C98.4715 49.5264 96.8902 51.1461 95.1499 52.5836C93.2564 54.1494 91.2286 55.5454 89.0901 56.7555C86.7526 58.0804 84.318 59.2262 81.8072 60.1829C79.1128 61.2135 76.3518 62.061 73.5432 62.7195C70.5271 63.4257 67.4694 63.9407 64.3884 64.2617C63.6093 64.3441 62.8249 64.4159 62.0538 64.4718C62.0538 64.4718 59.1531 64.6897 59.1531 64.6897ZM70.0069 31.7985C70.0078 31.8162 70.0078 31.8339 70.0069 31.8517C69.9816 32.0609 69.9816 32.2725 70.0069 32.4818C70.0069 32.5882 70.0228 32.6919 70.0255 32.7903C70.0255 32.7903 70.0494 34.016 70.0494 34.016C70.0935 36.5202 69.9923 39.0247 69.7463 41.517C69.148 47.699 67.8584 52.7457 65.8057 56.9389C64.9348 58.803 63.7775 60.5193 62.3757 62.0254C61.6741 62.7256 60.9357 63.3877 60.1634 64.009C59.9587 64.1792 59.754 64.3493 59.5519 64.5222C59.5519 64.5222 62.0486 64.336 62.0486 64.336C62.8171 64.2775 63.5988 64.2057 64.3779 64.126C67.4526 63.8039 70.5041 63.2888 73.5141 62.5838C76.3149 61.9252 79.0686 61.0804 81.7569 60.0551C84.2651 59.1018 86.6978 57.9605 89.0343 56.641C91.1666 55.4345 93.1882 54.042 95.0754 52.4798C96.8094 51.0484 98.3838 49.434 99.7711 47.6644C101.052 46.0339 102.113 44.2414 102.925 42.3332C103.69 40.5172 104.172 38.5946 104.355 36.6324C104.355 36.6324 104.355 36.6324 104.355 36.6324C104.571 34.119 104.282 31.5879 103.507 29.1874C102.594 26.4502 101.171 23.9105 99.3137 21.7025C97.7184 19.7561 95.7986 18.0863 94.1155 16.6691C94.1155 16.6691 93.9453 17.4322 93.9453 17.4322C93.8137 18.1197 93.616 18.7928 93.355 19.4423C93.0224 20.2072 92.5964 20.9279 92.0867 21.5881C91.0045 23.008 89.5501 24.3109 87.6356 25.5765C83.7164 28.1398 78.7548 30.0223 72.5009 31.3305C71.9319 31.4475 71.3549 31.5565 70.7939 31.6602C70.7939 31.6602 70.5626 31.7054 70.5626 31.7054C70.52 31.7054 70.4589 31.7187 70.3924 31.724C70.2629 31.7238 70.1346 31.7491 70.0148 31.7985C70.0148 31.7985 70.0069 31.7985 70.0069 31.7985ZM53.0827 64.6897C53.0827 64.6897 50.1765 64.4716 50.1765 64.4716C47.0416 64.2411 43.9245 63.813 40.8435 63.19C37.9675 62.6105 35.1331 61.8413 32.3588 60.8873C29.7671 59.9973 27.2449 58.9166 24.8128 57.6541C22.5826 56.5059 20.4533 55.1717 18.4473 53.6657C16.6024 52.2793 14.9042 50.7076 13.3794 48.9753C11.9764 47.3829 10.7794 45.6204 9.81637 43.7292C8.91813 41.948 8.29079 40.0427 7.95511 38.0762C7.56407 35.7566 7.61549 33.3838 8.10666 31.0832C8.71492 28.3195 9.86738 25.7046 11.4968 23.3909C13.1592 21.0431 15.1385 18.9368 17.3784 17.1317C17.3784 17.1317 18.2293 16.4271 18.2293 16.4271L18.2532 16.5335C18.2532 16.5335 18.3649 17.0653 18.3649 17.0653C18.4499 17.4827 18.5404 17.9135 18.652 18.3283C18.8594 19.0864 19.1708 19.8121 19.5773 20.4847C20.4335 21.9205 21.6832 23.25 23.4036 24.5502C26.9134 27.2092 31.5479 29.2167 37.5784 30.7004C38.5542 30.9397 39.5567 31.1391 40.5272 31.3332C40.5272 31.3332 41.753 31.5831 41.753 31.5831C41.8005 31.5918 41.8484 31.5981 41.8965 31.6017C42.0404 31.6019 42.1819 31.6375 42.3087 31.7054C42.3459 31.7347 42.3672 31.7533 42.3645 31.8038C42.3628 31.8188 42.3628 31.834 42.3645 31.849C42.3898 32.0708 42.3898 32.2947 42.3645 32.5164C42.3645 32.6228 42.3486 32.7265 42.3459 32.8249C42.2981 35.3934 42.3459 37.4754 42.4576 39.3792C42.8644 45.6809 43.9891 50.9296 45.8956 55.4286C46.6999 57.4125 47.7794 59.2734 49.1023 60.9565C50.0036 62.0007 50.9986 62.9602 52.075 63.8228C52.075 63.8228 53.0827 64.6897 53.0827 64.6897ZM50.1845 64.3414L52.6865 64.5275C52.6865 64.5275 51.9819 63.9239 51.9819 63.9239C50.898 63.0566 49.8966 62.0908 48.9906 61.039C47.6605 59.3458 46.5748 57.4742 45.7653 55.4791C43.8535 50.9589 42.7235 45.7021 42.3087 39.3845C42.1837 37.478 42.1491 35.396 42.197 32.8195C42.197 32.7185 42.197 32.6121 42.2156 32.5031C42.241 32.292 42.241 32.0787 42.2156 31.8676C42.2156 31.8437 42.2156 31.8251 42.2156 31.8118C42.2156 31.8118 42.2156 31.8118 42.2156 31.8118C42.1066 31.7603 41.9878 31.7331 41.8673 31.732C41.8673 31.732 41.7104 31.7107 41.7104 31.7107C41.7104 31.7107 40.4846 31.4608 40.4846 31.4608C39.5141 31.2667 38.5117 31.0673 37.5305 30.8253C31.4841 29.339 26.8309 27.3208 23.3078 24.6539C21.5742 23.343 20.3112 21.9949 19.447 20.5511C19.0346 19.8673 18.7179 19.1301 18.5058 18.3602C18.3941 17.94 18.3037 17.5093 18.2186 17.0892C18.2186 17.0892 18.1309 16.6691 18.1309 16.6691C18.1309 16.6691 17.4502 17.2381 17.4502 17.2381C15.2225 19.0352 13.254 21.1317 11.6005 23.468C9.98236 25.7679 8.83724 28.3664 8.2316 31.1125C7.74315 33.3963 7.69173 35.752 8.08004 38.055C8.41802 40.0098 9.04532 41.9034 9.94132 43.6734C10.8988 45.5498 12.0878 47.2989 13.4804 48.8796C15.0004 50.6053 16.6932 52.1707 18.5324 53.5513C20.5317 55.0575 22.6549 56.3918 24.8793 57.5398C27.3037 58.7961 29.8169 59.8732 32.3987 60.7624C35.1681 61.7133 37.9972 62.4807 40.8675 63.0597C43.9435 63.6801 47.0552 64.1081 50.1844 64.3414C50.1844 64.3414 50.1845 64.3414 50.1845 64.3414ZM56.09 54.7692C55.3959 54.767 54.712 54.6021 54.0931 54.2879C54.0931 54.2879 54.0931 54.2879 54.0931 54.2879C53.1385 53.8067 52.277 53.0143 51.4554 51.863C50.5697 50.5757 49.863 49.174 49.3548 47.6964C48.0918 44.2185 47.4032 40.1902 47.2516 35.3828C47.233 34.7899 47.2224 34.1889 47.2224 33.5907C47.2224 33.5561 47.1958 32.6813 47.1984 32.4367C47.1984 32.4367 47.1984 32.3649 47.1984 32.3649C47.1984 32.3649 47.2702 32.3649 47.2702 32.3649C52.1817 32.8004 57.1186 32.8733 62.0407 32.5829C62.8384 32.5324 63.6627 32.4633 64.4524 32.3968C64.4524 32.3968 64.9044 32.3569 64.9044 32.3569C64.9044 32.3569 64.9044 32.4287 64.9044 32.4287C64.947 36.9223 64.612 40.5944 63.8409 43.9819C63.4594 45.7625 62.9027 47.5011 62.1789 49.1721C61.6201 50.5048 60.8498 51.7385 59.8975 52.8255C59.1706 53.6866 58.2074 54.3161 57.1269 54.6363C56.7885 54.7253 56.4399 54.77 56.09 54.7692C56.09 54.7692 56.09 54.7692 56.09 54.7692ZM54.1516 54.1682C55.0588 54.6354 56.1051 54.7564 57.095 54.5086C58.1535 54.1946 59.0978 53.5793 59.8125 52.7377C60.7528 51.6598 61.5141 50.438 62.0673 49.1189C62.7878 47.4584 63.3418 45.7305 63.7212 43.9605C64.4763 40.5996 64.8087 36.9595 64.7714 32.5111C64.7714 32.5111 64.4657 32.5377 64.4657 32.5377C63.668 32.6042 62.8543 32.6706 62.0487 32.7238C57.1443 33.0135 52.2253 32.9424 47.3314 32.5111C47.3314 32.8195 47.3554 33.5747 47.3554 33.588C47.3554 34.1862 47.3554 34.7872 47.3846 35.3801C47.5362 40.1662 48.2222 44.1865 49.4798 47.6512C49.9843 49.1174 50.6856 50.5083 51.5645 51.7858C52.3621 52.9185 53.2183 53.6976 54.1516 54.1789C54.1516 54.1789 54.1516 54.1682 54.1516 54.1682ZM55.7284 26.2493C53.915 26.2493 52.1787 26.2014 50.5009 26.1004C49.8601 26.0632 49.2113 26.0153 48.5838 25.9701C48.5838 25.9701 47.9297 25.9222 47.9297 25.9222C47.9297 25.9222 47.943 25.8504 47.943 25.8504C48.3338 23.6329 48.8178 21.2691 49.7192 19.0116C50.6737 16.6186 51.7533 15.0232 53.1146 13.9596C54.4282 12.9359 56.0076 12.6089 57.4487 13.0582C58.8899 13.5076 60.1954 14.6855 61.3148 16.5521C62.5964 18.6926 63.4899 21.3382 64.1253 24.8879C64.1253 24.8879 64.3035 25.9275 64.3035 25.9275C64.3035 25.9275 64.229 25.9275 64.229 25.9275C61.1952 26.1456 58.3794 26.2519 55.7284 26.2519C55.7284 26.2519 55.7284 26.2493 55.7284 26.2493ZM48.0865 25.8025C48.0865 25.8025 48.5917 25.8397 48.5917 25.8397C49.2193 25.8849 49.8707 25.9328 50.5088 25.97C55.0536 26.2109 59.6092 26.155 64.1466 25.8025C64.1466 25.8025 63.995 24.9091 63.995 24.9091C63.3622 21.378 62.4741 18.743 61.2005 16.6185C60.0997 14.7785 58.8234 13.6245 57.4088 13.1832C55.9943 12.7418 54.484 13.0662 53.1971 14.0606C51.8543 15.1082 50.788 16.6983 49.8415 19.0648C48.956 21.285 48.4721 23.6195 48.0865 25.8025C48.0865 25.8025 48.0865 25.8025 48.0865 25.8025ZM69.2677 25.3266C69.2677 25.3266 69.2677 25.2601 69.2677 25.2601C68.5525 20.8755 67.6378 17.4402 66.3854 14.4462C64.8804 10.8433 63.1123 8.2535 60.9851 6.52784C60.4879 6.12634 59.9906 5.73016 59.4908 5.33132C59.4908 5.33132 58.592 4.6134 58.592 4.6134C58.592 4.6134 61.5913 4.79687 61.5913 4.79687C65.8659 5.0129 70.112 5.6172 74.2772 6.60229C76.8404 7.23512 80.1535 8.19766 83.0517 10.0217C85.7293 11.7101 87.0747 13.691 86.9418 15.7517C86.7849 18.1448 84.8837 20.1656 81.1293 21.9657C77.444 23.7312 73.4316 24.5848 69.9936 25.1883C69.9936 25.1883 69.2677 25.3266 69.2677 25.3266ZM58.9882 4.77026C58.9882 4.77026 59.5598 5.2276 59.5598 5.2276C60.0571 5.62644 60.5569 6.02529 61.0515 6.42413C63.1973 8.16308 64.9788 10.7715 66.4917 14.401C67.7414 17.387 68.6561 20.8144 69.3713 25.175C69.3713 25.175 69.9643 25.0713 69.9643 25.0713C73.3943 24.4704 77.396 23.6195 81.0654 21.862C84.7347 20.1044 86.6492 18.0889 86.8034 15.7464C86.9363 13.707 85.6467 11.8218 82.9745 10.136C80.0922 8.31996 76.7925 7.3654 74.2399 6.73523C70.0796 5.74678 65.8379 5.1398 61.5674 4.92183C61.5674 4.92183 58.9882 4.77026 58.9882 4.77026ZM42.9521 25.3266C42.9521 25.3266 42.8856 25.3266 42.8856 25.3266C39.312 24.6831 36.3473 24.0344 33.4623 22.9655C31.3086 22.1678 28.6044 20.9925 26.7751 18.977C25.411 17.4694 24.9537 15.6055 25.5493 13.9915C25.9455 12.8721 26.7591 11.8431 28.0381 10.846C29.4947 9.7535 31.1013 8.87677 32.8082 8.24288C36.9243 6.60496 41.7476 5.58393 47.9935 5.00694C49.525 4.86601 51.0885 4.77561 52.5988 4.68786C52.5988 4.68786 53.6491 4.62671 53.6491 4.62671C53.6491 4.62671 51.365 6.45075 51.365 6.45075C50.3418 7.284 49.435 8.25073 48.6689 9.32507C46.7704 11.9388 45.3 15.2465 44.1779 19.4291C43.6727 21.3169 43.3324 23.1835 42.9681 25.2548C42.9681 25.2548 42.9521 25.3266 42.9521 25.3266ZM53.2342 4.77563C53.2342 4.77563 52.6014 4.81286 52.6014 4.81286C51.0911 4.9006 49.5303 4.99101 47.9987 5.12927C41.7688 5.70095 36.9561 6.72464 32.8427 8.3599C31.1488 8.98942 29.554 9.8589 28.1071 10.9417C26.8495 11.9229 26.0491 12.9333 25.6609 14.0288C25.6609 14.0288 25.6609 14.0288 25.6609 14.0288C25.0733 15.6242 25.512 17.387 26.8601 18.8814C28.6708 20.8835 31.3564 22.0482 33.4942 22.8405C36.3552 23.9041 39.2986 24.5396 42.835 25.1698C43.194 23.125 43.5343 21.2744 44.0369 19.3999C45.1643 15.1881 46.64 11.8644 48.5571 9.24002C49.3305 8.15537 50.2453 7.17888 51.2772 6.33643C51.2772 6.33643 53.2342 4.77563 53.2342 4.77563Z" fill="url(#gradient_2)" transform="translate(5.515 0)" />
  </g>
</svg>